<svg id="Layer_1" data-name="Layer 1" xmlns="http://www.w3.org/2000/svg" xmlns:xlink="http://www.w3.org/1999/xlink" viewBox="0 0 13 13">
  <defs>
    <style>
      .cls-1 {
        fill: #000;
      }

      .cls-1, .cls-2, .cls-3 {
        fill-rule: evenodd;
      }

      .cls-2, .cls-3, .cls-5 {
        fill: #000;
      }

      .cls-2 {
        fill-opacity: 0.5;
      }

      .cls-4 {
        mask: url(#mask);
      }
    </style>
    <mask id="mask" x="4.23" y="-0.5" width="9.27" height="9.27" maskUnits="userSpaceOnUse">
      <g id="path-2-inside-1">
        <path class="cls-1" d="M7.5.5H12a.5.5,0,0,1,.5.5V5.5a.5.5,0,0,1-1,0V2.21L6.35,7.35l-.7-.7L10.79,1.5H7.5a.5.5,0,0,1,0-1Z"/>
      </g>
    </mask>
  </defs>
  <title>Artboard 1</title>
  <path class="cls-2" d="M4.3,3H1.5A1.5,1.5,0,0,0,0,4.5v7A1.5,1.5,0,0,0,1.5,13h7A1.5,1.5,0,0,0,10,11.5v-3L8.5,10v1.5h-7v-7H2.8Z"/>
  <path class="cls-3" d="M7.5.5H12a.5.5,0,0,1,.5.5V5.5a.5.5,0,0,1-1,0V2.21L6.35,7.35l-.7-.7L10.79,1.5H7.5a.5.5,0,0,1,0-1Z"/>
  <g class="cls-4">
    <path class="cls-5" d="M12,.5v-1h0ZM7.5.5v1h0Zm5,.5h0Zm0,4.5h0Zm-1,0h0Zm0-3.29h1V-.21L10.79,1.5ZM6.35,7.35l-.7.71.7.71.71-.71Zm-.7-.7-.71-.71-.71.71.71.7ZM10.79,1.5l.71.71L13.21.5H10.79ZM7.5,1.5v1h0ZM12-.5H7.5v2H12ZM13.5,1A1.5,1.5,0,0,0,12-.5v2a.5.5,0,0,1-.5-.5Zm0,4.5V1h-2V5.5ZM12,7a1.5,1.5,0,0,0,1.5-1.5h-2A.5.5,0,0,1,12,5ZM10.5,5.5A1.5,1.5,0,0,0,12,7V5a.5.5,0,0,1,.5.5Zm0-3.29V5.5h2V2.21ZM7.06,8.06l5.15-5.15L10.79,1.5,5.65,6.65ZM4.94,7.35l.71.71L7.06,6.65l-.71-.71ZM10.09.79,4.94,5.94,6.35,7.35,11.5,2.21ZM7.5,2.5h3.29V.5H7.5ZM6,1A1.5,1.5,0,0,0,7.5,2.5V.5A.5.5,0,0,1,8,1ZM7.5-.5A1.5,1.5,0,0,0,6,1H8a.5.5,0,0,1-.5.5Z"/>
  </g>
</svg>
