<svg id="Capa_1" data-name="Capa 1" xmlns="http://www.w3.org/2000/svg" viewBox="0 0 65.2 65.2">
	<defs>
		<style>
			.cls-1 {
			fill: #9C27B0;
			}
		</style>
	</defs>
	<title>Artboard 1</title>
	<g>
		<path class="cls-1" d="M44.15,21A16.44,16.44,0,0,0,32.6,16.21,16.07,16.07,0,0,0,21,21,16.39,16.39,0,0,0,32.6,49a16.07,16.07,0,0,0,11.55-4.83A16.4,16.4,0,0,0,49,32.6,16.07,16.07,0,0,0,44.15,21Z"/>
		<path class="cls-1" d="M32.6,11.12a2.28,2.28,0,0,0,2.24-2.24V2.24a2.24,2.24,0,1,0-4.48,0V8.88A2.28,2.28,0,0,0,32.6,11.12Z"/>
		<path class="cls-1" d="M51,17.42l4.74-4.74a2.2,2.2,0,0,0-3.1-3.11l-4.75,4.75A2.2,2.2,0,0,0,51,17.42Z"/>
		<path class="cls-1" d="M63,30.36H56.31a2.24,2.24,0,1,0,0,4.48H63a2.24,2.24,0,1,0,0-4.48Z"/>
		<path class="cls-1" d="M50.88,47.78a2.19,2.19,0,1,0-3.1,3.1l4.74,4.74a2.19,2.19,0,0,0,3.1-3.1Z"/>
		<path class="cls-1" d="M32.6,54.07a2.28,2.28,0,0,0-2.24,2.24V63a2.24,2.24,0,1,0,4.48,0V56.31A2.28,2.28,0,0,0,32.6,54.07Z"/>
		<path class="cls-1" d="M14.23,47.78,9.49,52.52a2.19,2.19,0,0,0,3.1,3.1l4.74-4.74a2.19,2.19,0,1,0-3.1-3.1Z"/>
		<path class="cls-1" d="M11.12,32.6a2.28,2.28,0,0,0-2.24-2.24H2.24a2.24,2.24,0,1,0,0,4.48H8.88A2.28,2.28,0,0,0,11.12,32.6Z"/>
		<path class="cls-1" d="M14.23,17.42a2.19,2.19,0,0,0,3.1-3.1L12.59,9.57a2.2,2.2,0,1,0-3.1,3.11Z"/>
	</g>
</svg>
