<svg xmlns="http://www.w3.org/2000/svg" viewBox="0 0 43 48"><defs><style>.a{fill:#000;}.b{fill:#fff;}.c{fill:#fff;}</style></defs><title>Artboard 1</title><path class="a" d="M23.57,47.45a4.19,4.19,0,0,1-4.14,0L2.07,37.5A4.1,4.1,0,0,1,0,34V14.05A4.1,4.1,0,0,1,2.07,10.5L19.43.55a4.19,4.19,0,0,1,4.14,0l17.36,10A4.1,4.1,0,0,1,43,14.05V34a4.1,4.1,0,0,1-2.07,3.55Z"/><path class="b" d="M21.36,22.14l19.36-10.9,1.53,2.68-17.77,10L42.26,34.08l-1.55,2.67L21.34,25.69,1.68,36.76.15,34.08,18.22,23.9.74,13.92l1.55-2.67Z"/><path class="c" d="M40.93,10.5,23.57.55a4.19,4.19,0,0,0-4.14,0L2.07,10.5A4.1,4.1,0,0,0,0,14.05V34A4.1,4.1,0,0,0,2.07,37.5l17.36,10a4.19,4.19,0,0,0,4.14,0l17.36-10A4.1,4.1,0,0,0,43,34V14.05A4.1,4.1,0,0,0,40.93,10.5ZM38.86,34,21.5,43.89,4.14,34V14.05L21.5,4.11l17.36,9.94Z"/></svg>