<svg width="175" height="175" viewBox="0 0 175 175" fill="none" xmlns="http://www.w3.org/2000/svg">
<path fill-rule="evenodd" clip-rule="evenodd" d="M89.7537 0.951066C105.024 0.669318 120.613 -1.90893 134.243 5.69395C149.343 14.1166 162.179 27.7263 168.665 44.9685C175.467 63.051 177.135 84.0441 170.559 102.228C164.178 119.872 147.501 128.678 134.085 140.584C119.798 153.263 107.975 171.689 89.7537 173.94C70.8461 176.275 51.1433 167.218 37.5723 152.505C24.8484 138.711 25.9484 116.821 19.9645 98.279C13.7332 78.971 -3.83502 61.2566 1.8237 41.7352C7.48131 22.2176 29.2117 15.2569 46.3322 7.31595C60.1299 0.916211 74.7885 1.22718 89.7537 0.951066Z" fill="black"/>
</svg>
