<svg width="256" height="256" viewBox="0 0 256 256" fill="none" xmlns="http://www.w3.org/2000/svg">
	<path d="M200.434 128C200.434 167.766 168.195 200 128.434 200C88.668 200 56.4336 167.766 56.4336 128C56.4336 88.2344 88.668 56 128.434 56C168.195 56 200.434 88.2344 200.434 128Z" fill="#DF9363"/>
	<path d="M176.434 128C176.434 88.832 149.57 57.0781 116.434 57.0781C83.293 57.0781 56.4336 88.832 56.4336 128C56.4336 167.168 83.293 198.922 116.434 198.922C149.57 198.922 176.434 167.168 176.434 128Z" fill="#EEA273"/>
	<path d="M128.434 208C84.3203 208 48.4336 172.113 48.4336 128C48.4336 83.8867 84.3203 48 128.434 48C172.543 48 208.434 83.8867 208.434 128C208.434 172.113 172.543 208 128.434 208V208ZM128.434 64C93.1445 64 64.4336 92.7109 64.4336 128C64.4336 163.289 93.1445 192 128.434 192C163.719 192 192.434 163.289 192.434 128C192.434 92.7109 163.719 64 128.434 64V64Z" fill="black"/>
	<path d="M128.434 176V160C146.078 160 160.434 145.648 160.434 128H176.434C176.434 154.473 154.902 176 128.434 176V176Z" fill="black"/>
	<path d="M120.434 0H136.434V32H120.434V0Z" fill="black"/>
	<path d="M120.434 224H136.434V256H120.434V224Z" fill="black"/>
	<path d="M26.7773 37.6602L38.0898 26.3477L62.0898 50.3477L50.7773 61.6602L26.7773 37.6602Z" fill="black"/>
	<path d="M194.773 205.66L206.086 194.348L230.09 218.348L218.773 229.66L194.773 205.66Z" fill="black"/>
	<path d="M0.433594 120H32.4336V136H0.433594V120Z" fill="black"/>
	<path d="M223.434 120H255.434V136H223.434V120Z" fill="black"/>
	<path d="M26.7734 218.34L50.7773 194.34L62.0898 205.652L38.0898 229.656L26.7734 218.34Z" fill="black"/>
	<path d="M194.773 50.3438L218.777 26.3398L230.09 37.6562L206.09 61.6562L194.773 50.3438Z" fill="black"/>
</svg>
