<svg width="171" height="170" viewBox="0 0 171 170" fill="none" xmlns="http://www.w3.org/2000/svg">
<path d="M157.21 27.4194L146.177 2.74194L135.145 27.4194V145.323H157.21V27.4194Z" fill="#C18E59"/>
<path d="M135.145 27.4194H157.21V145.323H135.145V27.4194Z" fill="#7ECB92"/>
<path d="M140.661 145.323H151.694V167.258H140.661V145.323Z" fill="#674025"/>
<path d="M13.7903 2.74194H124.113V156.29H13.7903V2.74194Z" fill="#8892A0"/>
<path d="M2.75806 167.258V13.7097H91.0161V35.6451H113.081V167.258H2.75806Z" fill="#B8CBD9"/>
<path d="M2.75806 134.075C4.58151 134.242 6.41843 134.355 8.27419 134.355C50.9245 134.355 85.5 90.1599 85.5 35.6451C85.5 28.1021 84.8159 20.768 83.5607 13.7097H2.75806V134.075Z" fill="#E8EFF4"/>
<path d="M113.081 35.6451L91.0161 13.7097V35.6451H113.081Z" fill="#E8EFF4"/>
<path d="M82.7419 60.3226V49.3548H76.5888C75.9868 46.72 74.9552 44.2525 73.5803 42.0113L77.2258 38.3871L68.9516 30.1613L65.3061 33.7855C63.0517 32.4186 60.5697 31.393 57.9194 30.7946V24.6774H46.8871V30.7946C44.2368 31.393 41.7548 32.4186 39.5004 33.7855L35.8548 30.1613L27.5806 38.3871L31.2262 42.0113C29.8512 44.2525 28.8196 46.72 28.2176 49.3548H22.0645V60.3226H28.2176C28.8196 62.9574 29.8512 65.4249 31.2262 67.6661L27.5806 71.2903L35.8548 79.5161L39.5004 75.8919C41.7548 77.2589 44.2368 78.2844 46.8871 78.8829V85H57.9194V78.8829C60.5697 78.2844 63.0517 77.2589 65.3061 75.8919L68.9516 79.5161L77.2258 71.2903L73.5803 67.6661C74.9552 65.4249 75.9868 62.9574 76.5888 60.3226H82.7419Z" fill="#F8CF6A"/>
<path d="M46.8871 95.9677H57.9194V106.935H46.8871V95.9677Z" fill="#ABD176"/>
<path d="M13.7903 128.871H24.8226V139.839H13.7903V128.871Z" fill="#ABD176"/>
<path d="M46.8871 128.871H57.9194V139.839H46.8871V128.871Z" fill="#ABD176"/>
<path d="M79.9839 128.871H91.0161V139.839H79.9839V128.871Z" fill="#ABD176"/>
<path d="M66.1936 54.8387C66.1936 62.4098 60.0189 68.5484 52.4032 68.5484C44.7876 68.5484 38.6129 62.4098 38.6129 54.8387C38.6129 47.2676 44.7876 41.129 52.4032 41.129C60.0189 41.129 66.1936 47.2676 66.1936 54.8387Z" fill="white"/>
<path d="M124.113 159.032H113.081V153.548H121.355V5.48387H16.5484V13.7097H11.0323V2.74194C11.0323 1.22905 12.2685 0 13.7903 0H124.113C125.635 0 126.871 1.22905 126.871 2.74194V156.29C126.871 157.803 125.635 159.032 124.113 159.032Z" fill="black"/>
<path d="M113.081 170H2.75806C1.23628 170 0 168.771 0 167.258V13.7096C0 12.1968 1.23628 10.9677 2.75806 10.9677H91.0161C92.5379 10.9677 93.7742 12.1968 93.7742 13.7096V32.9032H113.081C114.602 32.9032 115.839 34.1322 115.839 35.6451V167.258C115.839 168.771 114.602 170 113.081 170ZM5.51613 164.516H110.323V38.3871H91.0161C89.4944 38.3871 88.2581 37.158 88.2581 35.6451V16.4516H5.51613V164.516Z" fill="black"/>
<path d="M89.0648 15.6483L92.9648 11.7711L115.031 33.7065L111.129 37.5851L89.0648 15.6483Z" fill="black"/>
<path d="M57.9194 87.7419H46.8871C45.3653 87.7419 44.129 86.5129 44.129 85V80.9808C42.7056 80.5336 41.3184 79.9713 39.9812 79.2939L37.8049 81.4548C36.7262 82.5272 34.9835 82.5272 33.9048 81.4548L25.6306 73.229C24.5519 72.1566 24.5519 70.4241 25.6306 69.3517L27.8042 67.1881C27.1228 65.8587 26.5571 64.4797 26.1073 63.0645H22.0645C20.5427 63.0645 19.3064 61.8355 19.3064 60.3226V49.3548C19.3064 47.842 20.5427 46.6129 22.0645 46.6129H26.1073C26.5571 45.1978 27.1228 43.8188 27.8042 42.4893L25.6306 40.3257C24.5519 39.2533 24.5519 37.5209 25.6306 36.4485L33.9048 28.2227C34.9835 27.1503 36.7262 27.1503 37.8049 28.2227L39.9812 30.3835C41.3184 29.7061 42.7056 29.1438 44.129 28.6966V24.6774C44.129 23.1645 45.3653 21.9355 46.8871 21.9355H57.9194C59.4411 21.9355 60.6774 23.1645 60.6774 24.6774V28.6966C62.1009 29.1438 63.488 29.7061 64.8253 30.3835L67.0016 28.2227C68.0803 27.1503 69.8229 27.1503 70.9016 28.2227L79.1758 36.4485C80.2546 37.5209 80.2546 39.2533 79.1758 40.3257L77.0023 42.4893C77.6837 43.8188 78.2493 45.1978 78.6991 46.6129H82.7419C84.2637 46.6129 85.5 47.842 85.5 49.3548V60.3226C85.5 61.8355 84.2637 63.0645 82.7419 63.0645H78.6991C78.2493 64.4797 77.6837 65.8587 77.0023 67.1881L79.1758 69.3517C80.2546 70.4241 80.2546 72.1566 79.1758 73.229L70.9016 81.4548C69.8229 82.5272 68.0803 82.5272 67.0016 81.4548L64.8253 79.2939C63.488 79.9713 62.1009 80.5336 60.6774 80.9808V85C60.6774 86.5129 59.4411 87.7419 57.9194 87.7419ZM49.6452 82.2581H55.1613V78.8855C55.1613 77.6056 56.0528 76.4944 57.3066 76.2119C59.6095 75.6911 61.8194 74.7941 63.8651 73.553C64.9546 72.8943 66.3538 73.0589 67.2548 73.9533L68.9516 75.6389L73.3257 71.2903L71.6302 69.6034C70.7279 68.7077 70.5623 67.3167 71.2276 66.2335C72.4786 64.1999 73.3783 62.0055 73.9021 59.7134C74.1863 58.467 75.304 57.5806 76.5915 57.5806H79.9839V52.0968H76.5915C75.304 52.0968 74.1863 51.2105 73.9021 49.964C73.3783 47.6746 72.476 45.4776 71.2276 43.4439C70.5623 42.3608 70.7306 40.9697 71.6302 40.074L73.3257 38.3871L68.9516 34.0386L67.2548 35.7242C66.3538 36.6212 64.9573 36.7885 63.8651 36.1245C61.8194 34.8807 59.6122 33.9863 57.3066 33.4655C56.0528 33.183 55.1613 32.0718 55.1613 30.7919V27.4194H49.6452V30.7919C49.6452 32.0718 48.7536 33.183 47.4998 33.4655C45.197 33.9863 42.987 34.8834 40.9414 36.1245C39.8519 36.7859 38.4553 36.6185 37.5517 35.7242L35.8548 34.0386L31.4807 38.3871L33.1762 40.074C34.0785 40.9697 34.2442 42.3608 33.5789 43.4439C32.3278 45.4776 31.4282 47.6719 30.9043 49.964C30.6202 51.2105 29.5024 52.0968 28.2149 52.0968H24.8226V57.5806H28.2149C29.5024 57.5806 30.6202 58.467 30.9043 59.7134C31.4282 62.0028 32.3305 64.1999 33.5789 66.2335C34.2442 67.3167 34.0758 68.7077 33.1762 69.6034L31.4807 71.2903L35.8548 75.6389L37.5517 73.9533C38.4526 73.0589 39.8519 72.8916 40.9414 73.553C42.987 74.7967 45.1943 75.6911 47.4998 76.2119C48.7536 76.4944 49.6452 77.6056 49.6452 78.8855V82.2581Z" fill="black"/>
<path d="M52.4032 71.2903C43.2766 71.2903 35.8548 63.912 35.8548 54.8387C35.8548 45.7654 43.2766 38.3871 52.4032 38.3871C61.5299 38.3871 68.9516 45.7654 68.9516 54.8387C68.9516 63.912 61.5299 71.2903 52.4032 71.2903ZM52.4032 43.871C46.3188 43.871 41.371 48.7898 41.371 54.8387C41.371 60.8876 46.3188 65.8064 52.4032 65.8064C58.4877 65.8064 63.4355 60.8876 63.4355 54.8387C63.4355 48.7898 58.4877 43.871 52.4032 43.871Z" fill="black"/>
<path d="M57.9194 109.677H46.8871C45.3653 109.677 44.129 108.448 44.129 106.935V95.9677C44.129 94.4549 45.3653 93.2258 46.8871 93.2258H57.9194C59.4411 93.2258 60.6774 94.4549 60.6774 95.9677V106.935C60.6774 108.448 59.4411 109.677 57.9194 109.677ZM49.6452 104.194H55.1613V98.7097H49.6452V104.194Z" fill="black"/>
<path d="M24.8226 142.581H13.7903C12.2685 142.581 11.0323 141.352 11.0323 139.839V128.871C11.0323 127.358 12.2685 126.129 13.7903 126.129H24.8226C26.3444 126.129 27.5806 127.358 27.5806 128.871V139.839C27.5806 141.352 26.3444 142.581 24.8226 142.581ZM16.5484 137.097H22.0645V131.613H16.5484V137.097Z" fill="black"/>
<path d="M57.9194 142.581H46.8871C45.3653 142.581 44.129 141.352 44.129 139.839V128.871C44.129 127.358 45.3653 126.129 46.8871 126.129H57.9194C59.4411 126.129 60.6774 127.358 60.6774 128.871V139.839C60.6774 141.352 59.4411 142.581 57.9194 142.581ZM49.6452 137.097H55.1613V131.613H49.6452V137.097Z" fill="black"/>
<path d="M91.0161 142.581H79.9839C78.4621 142.581 77.2258 141.352 77.2258 139.839V128.871C77.2258 127.358 78.4621 126.129 79.9839 126.129H91.0161C92.5379 126.129 93.7742 127.358 93.7742 128.871V139.839C93.7742 141.352 92.5379 142.581 91.0161 142.581ZM82.7419 137.097H88.2581V131.613H82.7419V137.097Z" fill="black"/>
<path d="M88.2581 128.871H82.7419V120.645H22.0645V128.871H16.5484V117.903C16.5484 116.39 17.7847 115.161 19.3064 115.161H85.5C87.0218 115.161 88.2581 116.39 88.2581 117.903V128.871Z" fill="black"/>
<path d="M49.6452 106.935H55.1613V128.871H49.6452V106.935Z" fill="black"/>
<path d="M151.694 170H140.661C139.14 170 137.903 168.771 137.903 167.258V145.323C137.903 143.81 139.14 142.581 140.661 142.581H151.694C153.215 142.581 154.452 143.81 154.452 145.323V167.258C154.452 168.771 153.215 170 151.694 170ZM143.419 164.516H148.935V148.064H143.419V164.516Z" fill="black"/>
<path d="M157.21 148.065H135.145C133.623 148.065 132.387 146.835 132.387 145.323V27.4194C132.387 27.0351 132.467 26.6576 132.624 26.3068L143.656 1.62936C144.101 0.638624 145.088 0 146.177 0C147.267 0 148.254 0.638624 148.698 1.62936L159.731 26.3068C159.888 26.6576 159.968 27.0351 159.968 27.4194V145.323C159.968 146.835 158.731 148.065 157.21 148.065ZM137.903 142.581H154.452V28.0004L146.177 9.49235L137.903 28.0004V142.581Z" fill="black"/>
<path d="M135.145 24.6774H157.21V30.1613H135.145V24.6774Z" fill="black"/>
<path d="M168.242 142.581H157.21V137.097H165.484V85H171V139.839C171 141.352 169.764 142.581 168.242 142.581Z" fill="black"/>
</svg>
