<svg width="111" height="170" viewBox="0 0 111 170" fill="none" xmlns="http://www.w3.org/2000/svg">
<path d="M102.387 167.258H8.6129C5.56529 167.258 3.09677 164.804 3.09677 161.774V8.22581C3.09677 5.19603 5.56529 2.74194 8.6129 2.74194H102.387C105.435 2.74194 107.903 5.19603 107.903 8.22581V161.774C107.903 164.804 105.435 167.258 102.387 167.258Z" fill="#E4725F"/>
<path d="M52.7419 131.613H38.9516V117.903H27.9194V131.613H14.129V142.581H27.9194V156.29H38.9516V142.581H52.7419V131.613Z" fill="#F0D365"/>
<path d="M80.3226 148.064C80.3226 152.607 76.6178 156.29 72.0484 156.29C67.479 156.29 63.7742 152.607 63.7742 148.064C63.7742 143.522 67.479 139.839 72.0484 139.839C76.6178 139.839 80.3226 143.522 80.3226 148.064Z" fill="#F0D365"/>
<path d="M96.871 126.129C96.871 130.672 93.1662 134.355 88.5968 134.355C84.0274 134.355 80.3226 130.672 80.3226 126.129C80.3226 121.586 84.0274 117.903 88.5968 117.903C93.1662 117.903 96.871 121.586 96.871 126.129Z" fill="#F0D365"/>
<path d="M14.129 13.7097H96.871V106.935H14.129V13.7097Z" fill="white"/>
<path d="M80.3226 90.4839V54.8387C80.3226 41.2081 69.2109 30.1613 55.5 30.1613C41.7891 30.1613 30.6774 41.2081 30.6774 54.8387V90.4839L44.4677 76.7742L55.5 90.4839L66.5322 76.7742L80.3226 90.4839Z" fill="#695B52"/>
<path d="M55.5 30.1613C41.7891 30.1613 30.6774 41.2081 30.6774 54.8387V67.9727C34.8172 70.0787 39.4984 71.2904 44.4677 71.2904C61.2235 71.2904 74.8064 57.7869 74.8064 41.1291C74.8064 40.4824 74.7485 39.8518 74.7095 39.2145C70.1563 33.6905 63.2449 30.1613 55.5 30.1613Z" fill="#857970"/>
<path d="M49.9839 52.0968C49.9839 55.1252 47.514 57.5807 44.4677 57.5807C41.4215 57.5807 38.9516 55.1252 38.9516 52.0968C38.9516 49.0683 41.4215 46.6129 44.4677 46.6129C47.514 46.6129 49.9839 49.0683 49.9839 52.0968Z" fill="white"/>
<path d="M72.0484 52.0968C72.0484 55.1252 69.5785 57.5807 66.5323 57.5807C63.486 57.5807 61.0161 55.1252 61.0161 52.0968C61.0161 49.0683 63.486 46.6129 66.5323 46.6129C69.5785 46.6129 72.0484 49.0683 72.0484 52.0968Z" fill="white"/>
<path d="M102.387 170H8.6129C4.05159 170 0.338707 166.309 0.338707 161.774V8.22581C0.338707 3.69117 4.05159 0 8.6129 0H102.387C106.948 0 110.661 3.69117 110.661 8.22581V161.774C110.661 166.309 106.948 170 102.387 170ZM8.6129 5.48387C7.09112 5.48387 5.85484 6.71292 5.85484 8.22581V161.774C5.85484 163.287 7.09112 164.516 8.6129 164.516H102.387C103.909 164.516 105.145 163.287 105.145 161.774V8.22581C105.145 6.71292 103.909 5.48387 102.387 5.48387H8.6129Z" fill="black"/>
<path d="M38.9516 159.032H27.9194C26.3935 159.032 25.1613 157.807 25.1613 156.29V145.323H14.129C12.6032 145.323 11.371 144.098 11.371 142.581V131.613C11.371 130.096 12.6032 128.871 14.129 128.871H25.1613V117.903C25.1613 116.386 26.3935 115.161 27.9194 115.161H38.9516C40.4774 115.161 41.7097 116.386 41.7097 117.903V128.871H52.7419C54.2678 128.871 55.5 130.096 55.5 131.613V142.581C55.5 144.098 54.2678 145.323 52.7419 145.323H41.7097V156.29C41.7097 157.807 40.4774 159.032 38.9516 159.032ZM30.6774 153.548H36.1936V142.581C36.1936 141.064 37.4258 139.839 38.9516 139.839H49.9839V134.355H38.9516C37.4258 134.355 36.1936 133.13 36.1936 131.613V120.645H30.6774V131.613C30.6774 133.13 29.4452 134.355 27.9194 134.355H16.8871V139.839H27.9194C29.4452 139.839 30.6774 141.064 30.6774 142.581V153.548Z" fill="black"/>
<path d="M72.0484 159.032C65.964 159.032 61.0161 154.113 61.0161 148.065C61.0161 142.016 65.964 137.097 72.0484 137.097C78.1328 137.097 83.0807 142.016 83.0807 148.065C83.0807 154.113 78.1328 159.032 72.0484 159.032ZM72.0484 142.581C69.0062 142.581 66.5323 145.04 66.5323 148.065C66.5323 151.089 69.0062 153.548 72.0484 153.548C75.0906 153.548 77.5645 151.089 77.5645 148.065C77.5645 145.04 75.0906 142.581 72.0484 142.581Z" fill="black"/>
<path d="M88.5968 137.097C82.5123 137.097 77.5645 132.178 77.5645 126.129C77.5645 120.08 82.5123 115.161 88.5968 115.161C94.6812 115.161 99.629 120.08 99.629 126.129C99.629 132.178 94.6812 137.097 88.5968 137.097ZM88.5968 120.645C85.5546 120.645 83.0806 123.105 83.0806 126.129C83.0806 129.153 85.5546 131.613 88.5968 131.613C91.639 131.613 94.1129 129.153 94.1129 126.129C94.1129 123.105 91.639 120.645 88.5968 120.645Z" fill="black"/>
<path d="M96.871 109.677H14.129C12.6032 109.677 11.371 108.452 11.371 106.935V13.7096C11.371 12.1927 12.6032 10.9677 14.129 10.9677H96.871C98.3968 10.9677 99.629 12.1927 99.629 13.7096V106.935C99.629 108.452 98.3968 109.677 96.871 109.677ZM16.8871 104.194H94.1129V16.4516H16.8871V104.194Z" fill="black"/>
<path d="M80.3226 93.2258C79.6061 93.2258 78.8991 92.946 78.3725 92.4225L66.7612 80.8791L57.6534 92.1976C56.603 93.5003 54.3944 93.5003 53.3466 92.1976L44.2388 80.8791L32.6275 92.4225C31.8356 93.2071 30.6505 93.4454 29.6216 93.017C28.59 92.5952 27.9194 91.5911 27.9194 90.4839V54.8387C27.9194 39.7193 40.2916 27.4194 55.5 27.4194C70.7084 27.4194 83.0807 39.7193 83.0807 54.8387V90.4839C83.0807 91.5911 82.41 92.5952 81.3784 93.017C81.0363 93.1602 80.6781 93.2258 80.3226 93.2258ZM44.4677 74.0323C44.5203 74.0323 44.5701 74.0349 44.6226 74.0376C45.4024 74.0818 46.1336 74.4513 46.6252 75.0605L55.5 86.0938L64.3789 75.0605C64.8691 74.4513 65.5976 74.0818 66.3801 74.0376C67.1612 74.0015 67.9302 74.2813 68.485 74.8356L77.5645 83.8647V54.8387C77.5645 42.7437 67.6662 32.9032 55.5 32.9032C43.3338 32.9032 33.4355 42.7437 33.4355 54.8387V83.8647L42.5177 74.8356C43.0335 74.3174 43.7365 74.0323 44.4677 74.0323Z" fill="black"/>
<path d="M44.4677 60.3226C39.9064 60.3226 36.1935 56.6314 36.1935 52.0968C36.1935 47.5621 39.9064 43.871 44.4677 43.871C49.029 43.871 52.7419 47.5621 52.7419 52.0968C52.7419 56.6314 49.029 60.3226 44.4677 60.3226ZM44.4677 49.3548C42.946 49.3548 41.7097 50.5839 41.7097 52.0968C41.7097 53.6097 42.946 54.8387 44.4677 54.8387C45.9895 54.8387 47.2258 53.6097 47.2258 52.0968C47.2258 50.5839 45.9895 49.3548 44.4677 49.3548Z" fill="black"/>
<path d="M66.5323 60.3226C61.9709 60.3226 58.2581 56.6314 58.2581 52.0968C58.2581 47.5621 61.9709 43.871 66.5323 43.871C71.0936 43.871 74.8064 47.5621 74.8064 52.0968C74.8064 56.6314 71.0936 60.3226 66.5323 60.3226ZM66.5323 49.3548C65.0105 49.3548 63.7742 50.5839 63.7742 52.0968C63.7742 53.6097 65.0105 54.8387 66.5323 54.8387C68.054 54.8387 69.2903 53.6097 69.2903 52.0968C69.2903 50.5839 68.054 49.3548 66.5323 49.3548Z" fill="black"/>
<path d="M49.9839 65.8065H61.0161V71.2903H49.9839V65.8065Z" fill="black"/>
</svg>
