<svg width="170" height="170" viewBox="0 0 170 170" fill="none" xmlns="http://www.w3.org/2000/svg">
<g clip-path="url(#clip0)">
<path d="M2.74194 35.6452H145.323V167.258H2.74194V35.6452Z" fill="#B8CBD9"/>
<path d="M2.74194 35.6452V147.039C7.67957 147.695 12.7056 148.065 17.8226 148.065C80.207 148.065 130.839 97.8542 131.577 35.6452H2.74194Z" fill="#E8EFF4"/>
<path d="M2.74194 2.74194H145.323V35.6452H2.74194V2.74194Z" fill="#E4725F"/>
<path d="M145.323 170H2.74194C1.22503 170 0 168.771 0 167.258V2.74194C0 1.22905 1.22503 0 2.74194 0H145.323C146.839 0 148.065 1.22905 148.065 2.74194V52.0968H142.581V5.48387H5.48387V164.516H142.581V95.9677H148.065V167.258C148.065 168.771 146.839 170 145.323 170Z" fill="black"/>
<path d="M2.74194 32.9032H145.323V38.3871H2.74194V32.9032Z" fill="black"/>
<path d="M24.6774 19.1936C24.6774 22.222 22.222 24.6774 19.1935 24.6774C16.1651 24.6774 13.7097 22.222 13.7097 19.1936C13.7097 16.1651 16.1651 13.7097 19.1935 13.7097C22.222 13.7097 24.6774 16.1651 24.6774 19.1936Z" fill="#F0D365"/>
<path d="M46.6129 19.1936C46.6129 22.222 44.1575 24.6774 41.129 24.6774C38.1006 24.6774 35.6451 22.222 35.6451 19.1936C35.6451 16.1651 38.1006 13.7097 41.129 13.7097C44.1575 13.7097 46.6129 16.1651 46.6129 19.1936Z" fill="#F0D365"/>
<path d="M68.5484 19.1936C68.5484 22.222 66.0929 24.6774 63.0645 24.6774C60.0361 24.6774 57.5806 22.222 57.5806 19.1936C57.5806 16.1651 60.0361 13.7097 63.0645 13.7097C66.0929 13.7097 68.5484 16.1651 68.5484 19.1936Z" fill="#F0D365"/>
<path d="M19.1936 27.4194C14.6589 27.4194 10.9678 23.7282 10.9678 19.1936C10.9678 14.6589 14.6589 10.9678 19.1936 10.9678C23.7282 10.9678 27.4194 14.6589 27.4194 19.1936C27.4194 23.7282 23.7282 27.4194 19.1936 27.4194ZM19.1936 16.4516C17.6807 16.4516 16.4516 17.6834 16.4516 19.1936C16.4516 20.7038 17.6807 21.9355 19.1936 21.9355C20.7065 21.9355 21.9355 20.7038 21.9355 19.1936C21.9355 17.6834 20.7065 16.4516 19.1936 16.4516Z" fill="black"/>
<path d="M41.1291 27.4194C36.5944 27.4194 32.9033 23.7282 32.9033 19.1936C32.9033 14.6589 36.5944 10.9678 41.1291 10.9678C45.6637 10.9678 49.3549 14.6589 49.3549 19.1936C49.3549 23.7282 45.6637 27.4194 41.1291 27.4194ZM41.1291 16.4516C39.6162 16.4516 38.3871 17.6834 38.3871 19.1936C38.3871 20.7038 39.6162 21.9355 41.1291 21.9355C42.6419 21.9355 43.871 20.7038 43.871 19.1936C43.871 17.6834 42.6419 16.4516 41.1291 16.4516Z" fill="black"/>
<path d="M63.0645 27.4194C58.5299 27.4194 54.8387 23.7282 54.8387 19.1936C54.8387 14.6589 58.5299 10.9678 63.0645 10.9678C67.5991 10.9678 71.2903 14.6589 71.2903 19.1936C71.2903 23.7282 67.5991 27.4194 63.0645 27.4194ZM63.0645 16.4516C61.5516 16.4516 60.3226 17.6834 60.3226 19.1936C60.3226 20.7038 61.5516 21.9355 63.0645 21.9355C64.5774 21.9355 65.8064 20.7038 65.8064 19.1936C65.8064 17.6834 64.5774 16.4516 63.0645 16.4516Z" fill="black"/>
<path d="M52.0968 52.0968H167.258V95.9678H52.0968V52.0968Z" fill="#8BD2F5"/>
<path d="M167.258 98.7097H52.0968C50.5799 98.7097 49.3549 97.4806 49.3549 95.9678V52.0968C49.3549 50.5839 50.5799 49.3549 52.0968 49.3549H167.258C168.775 49.3549 170 50.5839 170 52.0968V95.9678C170 97.4806 168.775 98.7097 167.258 98.7097ZM54.8387 93.2258H164.516V54.8387H54.8387V93.2258Z" fill="black"/>
<path d="M60.3226 60.3226H71.2903V65.8065H60.3226V60.3226Z" fill="black"/>
<path d="M76.7742 60.3226H98.7097V65.8065H76.7742V60.3226Z" fill="black"/>
<path d="M104.194 60.3226H131.613V65.8065H104.194V60.3226Z" fill="black"/>
<path d="M137.097 60.3226H142.581V65.8065H137.097V60.3226Z" fill="black"/>
<path d="M148.065 60.3226H159.032V65.8065H148.065V60.3226Z" fill="black"/>
<path d="M60.3226 71.2903H87.7419V76.7742H60.3226V71.2903Z" fill="black"/>
<path d="M93.2258 71.2903H104.194V76.7742H93.2258V71.2903Z" fill="black"/>
<path d="M109.677 71.2903H126.129V76.7742H109.677V71.2903Z" fill="black"/>
<path d="M131.613 71.2903H159.032V76.7742H131.613V71.2903Z" fill="black"/>
<path d="M60.3226 82.2581H104.194V87.742H60.3226V82.2581Z" fill="black"/>
<path d="M109.677 82.2581H115.161V87.742H109.677V82.2581Z" fill="black"/>
<path d="M120.645 82.2581H142.581V87.742H120.645V82.2581Z" fill="black"/>
<path d="M148.065 82.2581H159.032V87.742H148.065V82.2581Z" fill="black"/>
<path d="M77.8707 150.258L55.9352 133.806C55.2444 133.288 54.8387 132.476 54.8387 131.613C54.8387 130.749 55.2444 129.938 55.9352 129.42L77.8707 112.968L81.1589 117.354L62.1514 131.613L81.1615 145.872L77.8707 150.258Z" fill="black"/>
<path d="M114.065 150.258L110.774 145.872L129.784 131.613L110.774 117.354L114.062 112.968L135.998 129.42C136.688 129.935 137.094 130.749 137.094 131.613C137.094 132.476 136.688 133.288 135.998 133.806L114.065 150.258Z" fill="black"/>
<path d="M87.7834 158.495L98.7618 103.662L104.139 104.738L93.1615 159.572L87.7834 158.495Z" fill="black"/>
</g>
<defs>
<clipPath id="clip0">
<rect width="170" height="170" fill="white"/>
</clipPath>
</defs>
</svg>
