<svg width="110" height="171" viewBox="0 0 110 171" fill="none" xmlns="http://www.w3.org/2000/svg">
<path d="M27.5 168.008V159.574C27.5 150.671 25.6273 141.869 22 133.734C18.3727 125.599 16.5 116.794 16.5 107.894V104.944C16.5 86.7727 31.2758 72.0403 49.5 72.0403C67.7242 72.0403 82.5 86.7727 82.5 104.944L93.5 126.879H82.5V151.556H66V168.008" fill="#F2B9A1"/>
<path d="M66 76.4768C61.1435 73.6718 55.517 72.0403 49.5 72.0403C31.2758 72.0403 16.5 86.7727 16.5 104.944V107.894C16.5 116.797 18.3727 125.599 22 133.734C22.9983 135.971 23.848 138.264 24.5768 140.589H60.5C63.5388 140.589 66 138.135 66 135.105V76.4768Z" fill="#FBE1CA"/>
<path d="M27.5 110.427C25.982 110.427 24.75 109.199 24.75 107.685V93.9758C24.75 92.4623 25.982 91.2339 27.5 91.2339C29.018 91.2339 30.25 92.4623 30.25 93.9758V107.685C30.25 109.199 29.018 110.427 27.5 110.427Z" fill="#F2B9A1"/>
<path d="M57.75 157.04H35.75C34.232 157.04 33 158.269 33 159.782C33 161.296 34.232 162.524 35.75 162.524H57.75C59.268 162.524 60.5 161.296 60.5 159.782C60.5 158.269 59.268 157.04 57.75 157.04Z" fill="#FBE1CA"/>
<path d="M107.25 63.8145V47.3629L95.2655 46.735C94.2095 41.9448 92.3092 37.4782 89.7407 33.475L97.779 24.5692L86.1107 12.9352L77.1787 20.9498C73.1637 18.3889 68.684 16.4942 63.8798 15.4413L63.25 3.49194H46.75L46.1202 15.4413C41.316 16.4942 36.8362 18.3889 32.8212 20.9498L23.8893 12.9352L12.221 24.5692L20.2593 33.475C17.6908 37.4782 15.7905 41.9448 14.7345 46.735L2.75 47.3629V63.8145L14.7345 64.4424C15.7905 69.2326 17.6908 73.6992 20.2593 77.7024L12.221 86.6082L23.8893 98.2423L32.8212 90.2276C36.8362 92.7886 41.316 94.6832 46.1202 95.7361L46.75 107.685H63.25L63.8798 95.7361C68.684 94.6832 73.1637 92.7886 77.1787 90.2276L86.1107 98.2423L97.779 86.6082L89.7407 77.7024C92.3092 73.6992 94.2095 69.2326 95.2655 64.4424L107.25 63.8145Z" fill="#C8CDED"/>
<path d="M52.25 3.49194H57.75V107.685H52.25V3.49194Z" fill="#9DA1BF"/>
<path d="M2.75 52.8468H107.25V58.3306H2.75V52.8468Z" fill="#9DA1BF"/>
<path d="M16.0985 90.4853L89.98 16.8205L93.8685 20.6976L19.987 94.3624L16.0985 90.4853Z" fill="#9DA1BF"/>
<path d="M16.0985 20.6976L19.987 16.8205L93.8685 90.4853L89.98 94.3624L16.0985 20.6976Z" fill="#9DA1BF"/>
<path d="M55 91.2339C74.7442 91.2339 90.75 75.275 90.75 55.5887C90.75 35.9024 74.7442 19.9435 55 19.9435C35.2558 19.9435 19.25 35.9024 19.25 55.5887C19.25 75.275 35.2558 91.2339 55 91.2339Z" fill="#858BB5"/>
<path d="M55 85.75C71.7066 85.75 85.25 72.2463 85.25 55.5887C85.25 38.9311 71.7066 25.4274 55 25.4274C38.2934 25.4274 24.75 38.9311 24.75 55.5887C24.75 72.2463 38.2934 85.75 55 85.75Z" fill="#4C506E"/>
<path d="M55.7906 50.9124L77.7879 28.9796L81.6764 32.8567L59.6791 54.7895L55.7906 50.9124Z" fill="#C8CDED"/>
<path d="M66 58.3307H77L82.5 63.8145V74.7823L74.25 66.5565L66 74.7823L74.25 83.0081H63.25L57.75 77.5242V66.5565L44 52.8468H33L27.5 47.3629V36.3952L35.75 44.621L44 36.3952L35.75 28.1694H46.75L52.25 33.6532V44.621L66 58.3307Z" fill="#546DED"/>
<path d="M46.75 55.5887L27.5 74.7823L35.75 83.0081L55 63.8145" fill="#BA4753"/>
<path d="M46.75 55.5887L33 69.2984L36.5557 72.8437C37.631 73.9158 39.3718 73.9158 40.4443 72.8437L52.25 61.0726L46.75 55.5887Z" fill="#E1656E"/>
<path d="M57.75 74.7822L62.1115 70.4335C64.2592 68.2921 64.2592 64.8208 62.1115 62.6793L39.875 40.508L35.75 44.6209L27.5 36.3951V47.3629L33 52.8468H44L57.75 66.5564V74.7822Z" fill="#7FA3F8"/>
<path d="M25.5557 76.7208L33.8057 84.9466C34.342 85.4813 35.046 85.75 35.75 85.75C36.454 85.75 37.158 85.4813 37.6942 84.9466L55 67.6916V77.5242C55 78.2508 55.2887 78.95 55.8057 79.4628L61.3057 84.9466C61.82 85.4621 62.5185 85.75 63.25 85.75H74.25C75.361 85.75 76.3675 85.081 76.791 84.0582C77.2172 83.0328 76.9807 81.8537 76.1942 81.0695L69.8885 74.7823L74.25 70.4336L80.5557 76.7208C81.3422 77.5078 82.5275 77.7408 83.5532 77.3158C84.5817 76.8908 85.25 75.89 85.25 74.7823V63.8145C85.25 63.0879 84.9612 62.3887 84.4442 61.876L78.9442 56.3921C78.43 55.8766 77.7315 55.5887 77 55.5887H67.1385L63.0135 51.4758L81.6942 32.8498L77.8057 28.9728L59.125 47.5987L55 43.4858V33.6532C55 32.9266 54.7112 32.2274 54.1942 31.7147L48.6942 26.2308C48.18 25.7153 47.4815 25.4274 46.75 25.4274H35.75C34.639 25.4274 33.6325 26.0965 33.209 27.1192C32.7827 28.1447 33.0192 29.3237 33.8057 30.1079L40.1115 36.3952L35.75 40.7439L29.4442 34.4566C28.6577 33.6697 27.4752 33.4421 26.4467 33.8616C25.4182 34.2866 24.75 35.2874 24.75 36.3952V47.3629C24.75 48.0895 25.0387 48.7887 25.5557 49.3015L31.0557 54.7853C31.57 55.3008 32.2685 55.5887 33 55.5887H42.8615L25.5557 72.8437C24.4805 73.9158 24.4805 75.6487 25.5557 76.7208ZM34.1385 50.1048L30.25 46.2278V43.0142L33.8057 46.5595C34.881 47.6316 36.619 47.6316 37.6942 46.5595L45.9442 38.3337C47.0195 37.2616 47.0195 35.5287 45.9442 34.4566L42.3885 30.9113H45.6115L49.5 34.7884V44.621C49.5 45.3476 49.7887 46.0468 50.3057 46.5595L64.0557 60.2692C64.57 60.7847 65.2685 61.0726 66 61.0726H75.8615L79.75 64.9497V68.1632L76.1942 64.6179C75.119 63.5458 73.381 63.5458 72.3057 64.6179L64.0557 72.8437C62.9805 73.9158 62.9805 75.6487 64.0557 76.7208L67.6115 80.2661H64.3885L60.5 76.389V66.5565C60.5 65.8298 60.2112 65.1307 59.6942 64.6179L45.9442 50.9082C45.43 50.3927 44.7315 50.1048 44 50.1048H34.1385ZM46.75 59.4658L51.1115 63.8145L35.75 79.131L31.3885 74.7823L46.75 59.4658Z" fill="black"/>
<path d="M2.60425 66.5537L12.5482 67.0747C13.5245 70.6721 14.9655 74.1269 16.8465 77.3844L10.175 84.7766C9.19875 85.8597 9.24 87.5185 10.274 88.5495L15.565 93.8223C14.3852 97.4005 13.75 101.127 13.75 104.944V107.894C13.75 117.238 15.6805 126.306 19.4865 134.85C22.979 142.684 24.75 151.003 24.75 159.574V170.75H30.25V159.574C30.25 150.229 28.3195 141.162 24.5135 132.618C21.021 124.784 19.25 116.465 19.25 107.894V104.944C19.25 102.673 19.5305 100.444 20.0255 98.2669L21.945 100.181C22.979 101.212 24.6428 101.258 25.729 100.28L33.1403 93.6276C36.4073 95.5031 39.8695 96.9371 43.4803 97.9105L44.0027 107.828C44.0797 109.284 45.287 110.427 46.75 110.427H63.25C64.713 110.427 65.9203 109.284 65.9973 107.831L66.5197 97.9132C70.1277 96.9398 73.59 95.5031 76.8598 93.6303L77.88 94.5461C79.1092 97.8694 79.75 101.36 79.75 104.944C79.75 105.369 79.849 105.791 80.0387 106.169L89.0505 124.137H82.5C80.9793 124.137 79.75 125.365 79.75 126.879V148.815H57.75V154.298H63.25V170.75H68.75V154.298H82.5C84.0207 154.298 85.25 153.07 85.25 151.556V129.621H93.5C94.4543 129.621 95.337 129.127 95.8403 128.321C96.3435 127.512 96.3875 126.503 95.9613 125.653L85.2473 104.285C85.2253 103.082 85.129 101.892 84.986 100.707C86.0035 101.171 87.2245 101.012 88.0577 100.181L99.726 88.5468C100.76 87.5158 100.804 85.8569 99.825 84.7739L93.1508 77.3844C95.0345 74.1269 96.4728 70.6721 97.449 67.0747L107.393 66.5537C108.856 66.4769 110 65.2732 110 63.8145V47.3629C110 45.9042 108.856 44.7005 107.396 44.6237L97.4518 44.1027C96.4755 40.5053 95.0345 37.0505 93.1535 33.7931L99.8277 26.4035C100.804 25.3205 100.763 23.6616 99.7287 22.6306L88.0605 10.9966C87.0292 9.96565 85.3627 9.92177 84.2765 10.8979L76.8653 17.5498C73.5983 15.6744 70.136 14.2403 66.5253 13.2669L66.0027 3.34935C65.9202 1.89339 64.713 0.75 63.25 0.75H46.75C45.287 0.75 44.0797 1.89339 44.0027 3.34661L43.4803 13.2642C39.8723 14.2376 36.41 15.6744 33.1403 17.5471L25.729 10.8952C24.6455 9.92177 22.979 9.96016 21.945 10.9939L10.2768 22.6279C9.24 23.6589 9.19875 25.3177 10.175 26.4008L16.8493 33.7903C14.9655 37.0477 13.5272 40.5026 12.551 44.1L2.607 44.621C1.144 44.7005 0 45.9042 0 47.3629V63.8145C0 65.2732 1.144 66.4769 2.60425 66.5537V66.5537ZM5.5 49.965L14.8775 49.4714C16.1122 49.4084 17.1517 48.5282 17.4185 47.3218C18.3865 42.9402 20.119 38.7779 22.5775 34.9502C23.243 33.911 23.1303 32.5537 22.3025 31.6379L16.0077 24.6679L23.9855 16.7135L30.9787 22.9871C31.8972 23.8152 33.2585 23.9248 34.3007 23.2585C38.1397 20.81 42.3115 19.0826 46.7088 18.1174C47.916 17.8542 48.7987 16.815 48.8647 15.5839L49.357 6.23387H60.643L61.1352 15.5866C61.2012 16.8177 62.084 17.8569 63.2912 18.1202C67.6885 19.0826 71.8603 20.8127 75.6993 23.2613C76.7415 23.9303 78.1028 23.8179 79.0213 22.9898L86.0145 16.7163L93.9923 24.6706L87.6975 31.6406C86.8697 32.5565 86.757 33.9137 87.4225 34.9529C89.881 38.7806 91.6135 42.9429 92.5815 47.3245C92.8483 48.531 93.8878 49.4111 95.1225 49.4742L104.5 49.9677V61.2179L95.1225 61.7115C93.8878 61.7745 92.8483 62.6547 92.5815 63.8611C91.6135 68.2427 89.881 72.405 87.4225 76.2327C86.757 77.2719 86.8697 78.6292 87.6975 79.545L93.9923 86.515L86.0145 94.4694L79.0213 88.1958C78.1028 87.3705 76.7415 87.2553 75.6993 87.9244C71.8603 90.3729 67.6885 92.1003 63.2912 93.0655C62.084 93.3287 61.2012 94.3679 61.1352 95.599L60.643 104.944H49.357L48.8647 95.5908C48.7987 94.3597 47.916 93.3205 46.7088 93.0573C42.3115 92.0948 38.1397 90.3647 34.3007 87.9161C33.2585 87.2498 31.9 87.3623 30.9787 88.1876L23.9855 94.4611L16.0077 86.5068L22.3025 79.5368C23.1303 78.621 23.243 77.2637 22.5775 76.2245C20.119 72.3968 18.3865 68.2345 17.4185 63.8529C17.1517 62.6465 16.1122 61.7663 14.8775 61.7032L5.5 61.2124V49.965Z" fill="black"/>
</svg>
