<svg xmlns="http://www.w3.org/2000/svg" width="56" height="56" viewBox="0 0 56 56" fill="none">
<style>
  #light-icon { display: block; }
  #dark-icon { display: none; }
  
  @media (prefers-color-scheme: dark) {
    #light-icon { display: none; }
    #dark-icon { display: block; }
  }
</style>
<g id="light-icon">
  <path d="M20.4648 54.6032C31.3646 51.0612 53.1489 43.8099 53.1489 43.2018V12.7981L20.4648 1.39667V54.6032Z" fill="#B2FD18"/>
  <path fill-rule="evenodd" clip-rule="evenodd" d="M53.9093 41.5601C53.9096 42.5199 53.6071 43.4554 53.0449 44.2333C52.4826 45.0112 51.6892 45.5919 50.7777 45.8926L20.7996 55.7738C19.8343 56.0897 18.7912 56.0743 17.8356 55.7301C16.88 55.3859 16.0667 54.7325 15.5246 53.8736L0.702758 30.4323C0.243642 29.7041 0 28.8608 0 28C0 27.1392 0.243642 26.2959 0.702758 25.5677L15.5094 2.12642C16.0515 1.2675 16.8648 0.614131 17.8204 0.269902C18.776 -0.0743262 19.8191 -0.0897127 20.7844 0.226183L50.7625 10.1074C51.6769 10.4055 52.4736 10.9851 53.0387 11.7632C53.6039 12.5413 53.9086 13.4782 53.9093 14.4399V41.5601ZM43.1616 28.9425C42.9495 28.6741 42.8341 28.3421 42.8341 28C42.8341 27.6579 42.9495 27.3259 43.1616 27.0575L49.7896 18.7421C49.8687 18.6451 49.9758 18.5748 50.0963 18.5409C50.2168 18.5071 50.3448 18.5112 50.4628 18.5528C50.5809 18.5943 50.6832 18.6713 50.7559 18.7732C50.8286 18.8751 50.8681 18.997 50.8689 19.1221V36.8779C50.8681 37.003 50.8286 37.1249 50.7559 37.2268C50.6832 37.3287 50.5809 37.4057 50.4628 37.4472C50.3448 37.4888 50.2168 37.4929 50.0963 37.459C49.9758 37.4252 49.8687 37.3549 49.7896 37.2579L43.1616 28.9425ZM49.516 12.8893C49.6096 12.9195 49.6945 12.972 49.7634 13.0422C49.8322 13.1124 49.8831 13.1983 49.9115 13.2925C49.9399 13.3867 49.945 13.4863 49.9264 13.5829C49.9078 13.6795 49.8661 13.7701 49.8048 13.8471L41.6566 24.0779C41.5143 24.2582 41.333 24.4039 41.1263 24.5041C40.9196 24.6043 40.6929 24.6564 40.4632 24.6564C40.2336 24.6564 40.0069 24.6043 39.8002 24.5041C39.5935 24.4039 39.4122 24.2582 39.2699 24.0779L24.7977 5.92688C24.4177 5.45563 24.8889 4.77154 25.4666 4.96917L49.516 12.8893ZM37.7649 28.9425C37.977 28.6741 38.0924 28.3421 38.0924 28C38.0924 27.6579 37.977 27.3259 37.7649 27.0575L21.5293 6.71738C21.4502 6.62038 21.3431 6.55015 21.2226 6.51627C21.1022 6.48239 20.9741 6.48652 20.8561 6.52809C20.738 6.56966 20.6357 6.64664 20.563 6.74854C20.4903 6.85043 20.4509 6.97227 20.45 7.09743V48.9026C20.45 49.465 21.1797 49.7235 21.5293 49.2674L37.7497 28.9425H37.7649ZM41.6566 31.9221C41.5143 31.7418 41.333 31.5961 41.1263 31.4959C40.9196 31.3957 40.6929 31.3436 40.4632 31.3436C40.2336 31.3436 40.0069 31.3957 39.8002 31.4959C39.5935 31.5961 39.4122 31.7418 39.2699 31.9221L24.7977 50.0731C24.7149 50.1756 24.6677 50.3023 24.6631 50.434C24.6585 50.5657 24.6968 50.6953 24.7723 50.8033C24.8477 50.9114 24.9562 50.9919 25.0815 51.033C25.2067 51.074 25.3419 51.0733 25.4666 51.0308L49.516 43.1107C49.6096 43.0805 49.6945 43.028 49.7634 42.9578C49.8322 42.8876 49.8831 42.8017 49.9115 42.7075C49.9399 42.6133 49.945 42.5137 49.9264 42.4171C49.9078 42.3205 49.8661 42.2299 49.8048 42.1529L41.6566 31.9221Z" fill="#111111"/>
</g>
<g id="dark-icon">
  <path d="M20.4648 54.6032C31.3646 51.0612 53.1489 43.8099 53.1489 43.2018V12.7981L20.4648 1.39667V54.6032Z" fill="#111111"/>
  <path fill-rule="evenodd" clip-rule="evenodd" d="M53.9093 41.5601C53.9096 42.5199 53.6071 43.4554 53.0449 44.2333C52.4826 45.0112 51.6892 45.5919 50.7777 45.8926L20.7996 55.7738C19.8343 56.0897 18.7912 56.0743 17.8356 55.7301C16.88 55.3859 16.0667 54.7325 15.5246 53.8736L0.702758 30.4323C0.243642 29.7041 0 28.8608 0 28C0 27.1392 0.243642 26.2959 0.702758 25.5677L15.5094 2.12642C16.0515 1.2675 16.8648 0.614131 17.8204 0.269902C18.776 -0.0743262 19.8191 -0.0897127 20.7844 0.226183L50.7625 10.1074C51.6769 10.4055 52.4736 10.9851 53.0387 11.7632C53.6039 12.5413 53.9086 13.4782 53.9093 14.4399V41.5601ZM43.1616 28.9425C42.9495 28.6741 42.8341 28.3421 42.8341 28C42.8341 27.6579 42.9495 27.3259 43.1616 27.0575L49.7896 18.7421C49.8687 18.6451 49.9758 18.5748 50.0963 18.5409C50.2168 18.5071 50.3448 18.5112 50.4628 18.5528C50.5809 18.5943 50.6832 18.6713 50.7559 18.7732C50.8286 18.8751 50.8681 18.997 50.8689 19.1221V36.8779C50.8681 37.003 50.8286 37.1249 50.7559 37.2268C50.6832 37.3287 50.5809 37.4057 50.4628 37.4472C50.3448 37.4888 50.2168 37.4929 50.0963 37.459C49.9758 37.4252 49.8687 37.3549 49.7896 37.2579L43.1616 28.9425ZM49.516 12.8893C49.6096 12.9195 49.6945 12.972 49.7634 13.0422C49.8322 13.1124 49.8831 13.1983 49.9115 13.2925C49.9399 13.3867 49.945 13.4863 49.9264 13.5829C49.9078 13.6795 49.8661 13.7701 49.8048 13.8471L41.6566 24.0779C41.5143 24.2582 41.333 24.4039 41.1263 24.5041C40.9196 24.6043 40.6929 24.6564 40.4632 24.6564C40.2336 24.6564 40.0069 24.6043 39.8002 24.5041C39.5935 24.4039 39.4122 24.2582 39.2699 24.0779L24.7977 5.92688C24.4177 5.45563 24.8889 4.77154 25.4666 4.96917L49.516 12.8893ZM37.7649 28.9425C37.977 28.6741 38.0924 28.3421 38.0924 28C38.0924 27.6579 37.977 27.3259 37.7649 27.0575L21.5293 6.71738C21.4502 6.62038 21.3431 6.55015 21.2226 6.51627C21.1022 6.48239 20.9741 6.48652 20.8561 6.52809C20.738 6.56966 20.6357 6.64664 20.563 6.74854C20.4903 6.85043 20.4509 6.97227 20.45 7.09743V48.9026C20.45 49.465 21.1797 49.7235 21.5293 49.2674L37.7497 28.9425H37.7649ZM41.6566 31.9221C41.5143 31.7418 41.333 31.5961 41.1263 31.4959C40.9196 31.3957 40.6929 31.3436 40.4632 31.3436C40.2336 31.3436 40.0069 31.3957 39.8002 31.4959C39.5935 31.5961 39.4122 31.7418 39.2699 31.9221L24.7977 50.0731C24.7149 50.1756 24.6677 50.3023 24.6631 50.434C24.6585 50.5657 24.6968 50.6953 24.7723 50.8033C24.8477 50.9114 24.9562 50.9919 25.0815 51.033C25.2067 51.074 25.3419 51.0733 25.4666 51.0308L49.516 43.1107C49.6096 43.0805 49.6945 43.028 49.7634 42.9578C49.8322 42.8876 49.8831 42.8017 49.9115 42.7075C49.9399 42.6133 49.945 42.5137 49.9264 42.4171C49.9078 42.3205 49.8661 42.2299 49.8048 42.1529L41.6566 31.9221Z" fill="#B2FD18"/>
</g>
</svg>