<svg xmlns="http://www.w3.org/2000/svg" viewBox="0 0 20 20"><title>contact-skype</title><path d="M15.28,12.18A2.76,2.76,0,0,0,15,11a2.92,2.92,0,0,0-.62-.89,3.85,3.85,0,0,0-.95-.62A7.93,7.93,0,0,0,12.38,9a9,9,0,0,0-1.12-.32L9.89,8.39l-.57-.14a3.79,3.79,0,0,1-.46-.15,1.35,1.35,0,0,1-.39-.21.88.88,0,0,1-.21-.27,1,1,0,0,1-.13-.39q0-1,1.87-1a3,3,0,0,1,1,.16,2.36,2.36,0,0,1,.71.37q.26.21.49.43a2.57,2.57,0,0,0,.52.37,1.35,1.35,0,0,0,1.61-.26,1.49,1.49,0,0,0,.37-1A1.65,1.65,0,0,0,14,5a5,5,0,0,0-1.87-.87,9.29,9.29,0,0,0-2.37-.31A7.24,7.24,0,0,0,8,4a6,6,0,0,0-1.56.62A3.18,3.18,0,0,0,5.33,5.79a3.12,3.12,0,0,0-.44,1.67,3.58,3.58,0,0,0,.25,1.39,2.5,2.5,0,0,0,.73,1,4.37,4.37,0,0,0,1,.62,8.42,8.42,0,0,0,1.34.42l1.87.47a6.16,6.16,0,0,1,1.46.47.85.85,0,0,1,.42.78,1,1,0,0,1-.52.84,2.55,2.55,0,0,1-1.37.34,3.18,3.18,0,0,1-1.19-.21,2.77,2.77,0,0,1-.81-.5L7.5,12.5A3.25,3.25,0,0,0,6.88,12a1.25,1.25,0,0,0-.7-.21,1.25,1.25,0,0,0-1,.39,1.45,1.45,0,0,0-.29.95q0,1.2,1.59,2.06a7.82,7.82,0,0,0,3.79.85,6.74,6.74,0,0,0,1.82-.24,6.09,6.09,0,0,0,1.59-.69,3.31,3.31,0,0,0,1.15-1.25,3.49,3.49,0,0,0,.43-1.71ZM20,15a5,5,0,0,1-5,5,4.87,4.87,0,0,1-3-1,9.52,9.52,0,0,1-1.95.21,9,9,0,0,1-3.56-.72A9.18,9.18,0,0,1,.83,10,9.52,9.52,0,0,1,1,8.05,4.86,4.86,0,0,1,0,5,4.81,4.81,0,0,1,1.46,1.46,4.83,4.83,0,0,1,5,0,4.87,4.87,0,0,1,8,1a9.73,9.73,0,0,1,2-.21,9,9,0,0,1,3.56.72,9.14,9.14,0,0,1,2.93,1.95,9.23,9.23,0,0,1,1.95,2.92A8.93,8.93,0,0,1,19.17,10,9.5,9.5,0,0,1,19,12,4.86,4.86,0,0,1,20,15Z"/></svg>