<?xml version="1.0" standalone="no"?>
<!DOCTYPE svg PUBLIC "-//W3C//DTD SVG 20010904//EN"
 "http://www.w3.org/TR/2001/REC-SVG-20010904/DTD/svg10.dtd">
<svg version="1.0" xmlns="http://www.w3.org/2000/svg"
 width="768.000000pt" height="768.000000pt" viewBox="0 0 768.000000 768.000000"
 preserveAspectRatio="xMidYMid meet">
<metadata>
Created by potrace 1.11, written by Peter Selinger 2001-2013
</metadata>
<g transform="translate(0.000000,768.000000) scale(0.100000,-0.100000)"
fill="#000000" stroke="none">
<path d="M3705 7666 c-33 -8 -82 -23 -110 -33 -49 -19 -2828 -1607 -2915
-1666 -125 -85 -233 -249 -265 -402 -22 -106 -22 -3346 0 -3450 30 -139 124
-294 229 -374 66 -50 11 -18 1016 -596 476 -274 1087 -626 1359 -783 514 -296
569 -325 654 -348 68 -18 266 -18 334 0 85 23 140 52 654 348 272 157 868 500
1324 763 1059 609 1002 576 1063 627 105 88 188 227 217 364 22 104 22 3345 0
3449 -31 145 -126 298 -238 380 -34 25 -704 414 -1489 864 -1176 674 -1440
822 -1505 841 -96 29 -242 36 -328 16z m1034 -1158 c482 -276 1042 -597 1245
-713 202 -116 368 -215 368 -220 0 -8 -2395 -1365 -2507 -1421 l-30 -15 -1245
711 c-685 391 -1248 714 -1252 718 -10 10 2514 1453 2531 1447 8 -3 408 -231
890 -507z m-3646 -1382 c12 -8 512 -294 1112 -636 600 -342 1093 -625 1098
-629 5 -5 -2185 -1250 -2235 -1269 -4 -2 -8 570 -8 1272 0 702 2 1276 5 1276
3 0 16 -6 28 -14z m5527 -1286 l0 -1301 -22 12 c-13 7 -531 302 -1152 657
-1064 608 -1127 646 -1105 658 13 7 526 296 1139 643 613 346 1121 629 1128
630 9 1 12 -265 12 -1299z m-1610 -953 c635 -362 1200 -684 1254 -716 54 -31
99 -60 100 -65 1 -5 -567 -333 -1262 -729 l-1262 -719 -1282 731 c-706 401
-1284 734 -1286 739 -1 5 25 25 60 44 35 20 493 277 1018 573 525 296 1069
602 1209 681 220 124 257 141 275 132 12 -6 541 -308 1176 -671z"/>
</g>
</svg>
