<svg version="1" xmlns="http://www.w3.org/2000/svg" width="933.333" height="933.333" viewBox="0 0 700.000000 700.000000"><path d="M107.5 68.4C88.2 73.2 72.1 89.7 68 109c-.8 4.1-1 66.5-.8 244l.3 238.5 2.2 5.8c5.8 15.4 19.1 28.4 33.9 33.3 5.8 1.9 11.9 1.9 246.4 1.9s240.6 0 246.4-1.9c15.1-5 28.6-18.4 33.8-33.6l2.3-6.5V350c0-234.5 0-240.6-1.9-246.4-4.9-14.9-17.8-28-33.3-33.9l-5.8-2.2-239.5-.2c-187.7-.1-240.6.1-244.5 1.1zm337.7 147.8L350 311.5l-95.2-95.3-95.3-95.2h381l-95.3 95.2zm-229 229L121 540.5v-381l95.2 95.3 95.3 95.2-95.3 95.2zm362.8-95v190.3l-95.2-95.2-95.3-95.3 95-95c52.2-52.2 95.1-95 95.2-95 .2 0 .3 85.6.3 190.2zM445.5 484l95 95h-381l95-95c52.2-52.3 95.2-95 95.5-95 .3 0 43.3 42.7 95.5 95z"/></svg>