<svg width="40" height="40" viewBox="0 0 40 40" xmlns="http://www.w3.org/2000/svg">
<path d="M19.9993 36.6666C19.2585 36.6666 18.6012 36.4884 18.0273 36.132C17.4531 35.7753 17.0549 35.2869 16.8327 34.6666H16.4439C15.6939 34.6666 15.0434 34.3912 14.4923 33.8403C13.9414 33.2892 13.666 32.6387 13.666 31.8887V25.9445C11.8974 24.787 10.497 23.2916 9.46477 21.4583C8.43227 19.6249 7.91602 17.611 7.91602 15.4166C7.91602 12.0555 9.08963 9.20131 11.4368 6.85409C13.7841 4.50686 16.6382 3.33325 19.9993 3.33325C23.3605 3.33325 26.2146 4.50686 28.5618 6.85409C30.9091 9.20131 32.0827 12.0555 32.0827 15.4166C32.0827 17.6296 31.5664 19.6481 30.5339 21.472C29.5017 23.2962 28.1013 24.787 26.3327 25.9445V31.8887C26.3327 32.6387 26.0573 33.2892 25.5064 33.8403C24.9553 34.3912 24.3048 34.6666 23.5548 34.6666H23.166C22.9438 35.2869 22.5456 35.7753 21.9714 36.132C21.3975 36.4884 20.7402 36.6666 19.9993 36.6666ZM16.4439 31.8887H23.5548V30.1666H16.4439V31.8887ZM16.4439 28.4999H23.5548V26.8612H16.4439V28.4999ZM16.0827 24.0833H18.9439V18.7778L15.166 14.9999L16.6106 13.5553L19.9993 16.9445L23.3881 13.5553L24.8327 14.9999L21.0548 18.7778V24.0833H23.916C25.5271 23.3241 26.8281 22.1644 27.8189 20.6041C28.8095 19.0438 29.3048 17.3146 29.3048 15.4166C29.3048 12.8055 28.4067 10.6017 26.6106 8.80534C24.8142 7.00923 22.6105 6.11117 19.9993 6.11117C17.3882 6.11117 15.1845 7.00923 13.3881 8.80534C11.592 10.6017 10.6939 12.8055 10.6939 15.4166C10.6939 17.3146 11.1892 19.0438 12.1798 20.6041C13.1706 22.1644 14.4716 23.3241 16.0827 24.0833Z" fill="currentColor"/>
</svg>
