<svg width="40" height="40" viewBox="0 0 40 40" xmlns="http://www.w3.org/2000/svg">
<path d="M19.9993 31.6669C21.8327 31.6669 23.4021 31.0141 24.7077 29.7086C26.0132 28.403 26.666 26.8336 26.666 25.0002V18.3336C26.666 16.5002 26.0132 14.9308 24.7077 13.6252C23.4021 12.3197 21.8327 11.6669 19.9993 11.6669C18.166 11.6669 16.5966 12.3197 15.291 13.6252C13.9855 14.9308 13.3327 16.5002 13.3327 18.3336V25.0002C13.3327 26.8336 13.9855 28.403 15.291 29.7086C16.5966 31.0141 18.166 31.6669 19.9993 31.6669ZM16.666 26.6669H23.3327V23.3336H16.666V26.6669ZM16.666 20.0002H23.3327V16.6669H16.666V20.0002ZM19.9993 35.0002C18.1938 35.0002 16.5202 34.5558 14.9785 33.6669C13.4368 32.778 12.2216 31.5558 11.3327 30.0002H6.66602V26.6669H10.166C10.0827 26.1114 10.0341 25.5558 10.0202 25.0002C10.0063 24.4447 9.99935 23.8891 9.99935 23.3336H6.66602V20.0002H9.99935C9.99935 19.4447 10.0063 18.8891 10.0202 18.3336C10.0341 17.778 10.0827 17.2225 10.166 16.6669H6.66602V13.3336H11.3327C11.7216 12.6947 12.1591 12.0975 12.6452 11.5419C13.1313 10.9864 13.6938 10.5002 14.3327 10.0836L11.666 7.33358L13.9993 5.00024L17.5827 8.58358C18.3605 8.33358 19.1521 8.20858 19.9577 8.20858C20.7632 8.20858 21.5549 8.33358 22.3327 8.58358L25.9993 5.00024L28.3327 7.33358L25.5827 10.0836C26.2216 10.5002 26.798 10.9794 27.3118 11.5211C27.8257 12.0627 28.2771 12.6669 28.666 13.3336H33.3327V16.6669H29.8327C29.916 17.2225 29.9646 17.778 29.9785 18.3336C29.9924 18.8891 29.9993 19.4447 29.9993 20.0002H33.3327V23.3336H29.9993C29.9993 23.8891 29.9924 24.4447 29.9785 25.0002C29.9646 25.5558 29.916 26.1114 29.8327 26.6669H33.3327V30.0002H28.666C27.7771 31.5558 26.5618 32.778 25.0202 33.6669C23.4785 34.5558 21.8049 35.0002 19.9993 35.0002Z" fill="currentColor"/>
</svg>
