<svg width="40" height="40" viewBox="0 0 40 40" xmlns="http://www.w3.org/2000/svg">
<mask id="mask0_1155_18330" style="mask-type:alpha" maskUnits="userSpaceOnUse" x="0" y="0" width="40" height="40">
<rect width="40" height="40" fill="#D9D9D9"/>
</mask>
<g mask="url(#mask0_1155_18330)">
<path d="M20 20C18.0556 20 16.4236 19.3056 15.1042 17.9167C13.7847 16.5278 13.125 14.8611 13.125 12.9167C13.125 10.9722 13.7847 9.30556 15.1042 7.91667C16.4236 6.52778 18.0556 5.83333 20 5.83333C21.9444 5.83333 23.5764 6.52778 24.8958 7.91667C26.2153 9.30556 26.875 10.9722 26.875 12.9167C26.875 14.8611 26.2153 16.5278 24.8958 17.9167C23.5764 19.3056 21.9444 20 20 20ZM6.25 34.1667V28.9583C6.25 27.9167 6.52083 27 7.0625 26.2083C7.60417 25.4167 8.33333 24.8194 9.25 24.4167C11.25 23.5278 13.2847 22.8472 15.3542 22.375C17.4236 21.9028 19.625 21.6667 20 21.6667C20.375 21.6667 22.5764 21.9028 24.6458 22.375C26.7153 22.8472 28.75 23.5278 30.75 24.4167C31.6667 24.8194 32.3958 25.4167 32.9375 26.2083C33.4792 27 33.75 27.9167 33.75 28.9583V34.1667H6.25Z" fill="currentColor"/>
</g>
</svg>
