<svg width="41" height="40" viewBox="0 0 41 40" xmlns="http://www.w3.org/2000/svg">
<path d="M9.94792 19.9999L9.44792 17.4999C9.11458 17.361 8.80208 17.2152 8.51042 17.0624C8.21875 16.9096 7.92014 16.7221 7.61458 16.4999L5.19792 17.2499L3.53125 14.4166L5.44792 12.7499C5.39236 12.3888 5.36458 12.0277 5.36458 11.6666C5.36458 11.3055 5.39236 10.9444 5.44792 10.5833L3.53125 8.91659L5.19792 6.08325L7.61458 6.83325C7.92014 6.61103 8.21875 6.42353 8.51042 6.27075C8.80208 6.11797 9.11458 5.97214 9.44792 5.83325L9.94792 3.33325H13.2812L13.7812 5.83325C14.1146 5.97214 14.4271 6.11797 14.7187 6.27075C15.0104 6.42353 15.309 6.61103 15.6146 6.83325L18.0312 6.08325L19.6979 8.91659L17.7812 10.5833C17.8368 10.9444 17.8646 11.3055 17.8646 11.6666C17.8646 12.0277 17.8368 12.3888 17.7812 12.7499L19.6979 14.4166L18.0312 17.2499L15.6146 16.4999C15.309 16.7221 15.0104 16.9096 14.7187 17.0624C14.4271 17.2152 14.1146 17.361 13.7812 17.4999L13.2812 19.9999H9.94792ZM11.6146 14.9999C12.5312 14.9999 13.316 14.6735 13.9688 14.0208C14.6215 13.368 14.9479 12.5833 14.9479 11.6666C14.9479 10.7499 14.6215 9.9652 13.9688 9.31242C13.316 8.65964 12.5312 8.33325 11.6146 8.33325C10.6979 8.33325 9.91319 8.65964 9.26042 9.31242C8.60764 9.9652 8.28125 10.7499 8.28125 11.6666C8.28125 12.5833 8.60764 13.368 9.26042 14.0208C9.91319 14.6735 10.6979 14.9999 11.6146 14.9999ZM24.8646 38.3333L24.1146 34.8333C23.6424 34.6666 23.2049 34.4652 22.8021 34.2291C22.3993 33.993 22.0035 33.7221 21.6146 33.4166L18.2813 34.4999L15.9479 30.4999L18.6146 28.1666C18.559 27.6666 18.5312 27.1666 18.5312 26.6666C18.5312 26.1666 18.559 25.6666 18.6146 25.1666L15.9479 22.8333L18.2813 18.8333L21.6146 19.9166C22.0035 19.611 22.3993 19.3402 22.8021 19.1041C23.2049 18.868 23.6424 18.6666 24.1146 18.4999L24.8646 14.9999H29.5313L30.2813 18.4999C30.7535 18.6666 31.191 18.868 31.5937 19.1041C31.9965 19.3402 32.3924 19.611 32.7813 19.9166L36.1146 18.8333L38.4479 22.8333L35.7812 25.1666C35.8368 25.6666 35.8646 26.1666 35.8646 26.6666C35.8646 27.1666 35.8368 27.6666 35.7812 28.1666L38.4479 30.4999L36.1146 34.4999L32.7813 33.4166C32.3924 33.7221 31.9965 33.993 31.5937 34.2291C31.191 34.4652 30.7535 34.6666 30.2813 34.8333L29.5313 38.3333H24.8646ZM27.1979 31.6666C28.5868 31.6666 29.7674 31.1805 30.7396 30.2083C31.7118 29.236 32.1979 28.0555 32.1979 26.6666C32.1979 25.2777 31.7118 24.0971 30.7396 23.1249C29.7674 22.1527 28.5868 21.6666 27.1979 21.6666C25.809 21.6666 24.6285 22.1527 23.6562 23.1249C22.684 24.0971 22.1979 25.2777 22.1979 26.6666C22.1979 28.0555 22.684 29.236 23.6562 30.2083C24.6285 31.1805 25.809 31.6666 27.1979 31.6666Z" fill="currentColor"/>
</svg>
