<svg xmlns="http://www.w3.org/2000/svg" width="56" height="56" fill="none" viewBox="0 0 56 56">
  <rect width="56" height="56" fill="#FEE076" rx="28"/>
  <path fill="#111" fill-rule="evenodd" d="M12 19.08a3 3 0 0 1 2.06-2.85l19.72-6.5a3 3 0 0 1 3.47 1.25L47 26.4a3 3 0 0 1 0 3.2l-9.74 15.42a3 3 0 0 1-3.47 1.25l-19.72-6.5A3 3 0 0 1 12 36.92V19.08Zm7.07 8.3a1 1 0 0 1 0 1.24l-4.36 5.47a.4.4 0 0 1-.71-.25V22.16a.4.4 0 0 1 .71-.25l4.36 5.47Zm-4.18 10.56a.4.4 0 0 1-.19-.63l5.36-6.73a1 1 0 0 1 1.57 0l9.52 11.94c.25.31-.06.76-.44.63L14.9 37.94Zm7.73-10.56a1 1 0 0 0 0 1.24L33.3 42c.23.3.71.12.71-.25v-27.5a.4.4 0 0 0-.71-.25L22.62 27.38Zm-2.56-1.96a1 1 0 0 0 1.57 0l9.52-11.94c.25-.31-.06-.76-.44-.63L14.9 18.06a.4.4 0 0 0-.19.63l5.36 6.73Z" clip-rule="evenodd"/>
</svg>