<svg xmlns="http://www.w3.org/2000/svg" width="56" height="56" fill="none" viewBox="0 0 56 56">
  <rect width="56" height="56" fill="#FEE076" rx="28"/>
  <path fill="#fff" d="M22 45.5c7.17-2.33 21.5-7.1 21.5-7.5V18L22 10.5v35Z"/>
  <path fill="#111" fill-rule="evenodd" d="M44 36.92a3 3 0 0 1-2.06 2.85l-19.72 6.5a3 3 0 0 1-3.47-1.25L9 29.6a3 3 0 0 1 0-3.2l9.74-15.42a3 3 0 0 1 3.47-1.25l19.72 6.5A3 3 0 0 1 44 19.08v17.84Zm-7.07-8.3a1 1 0 0 1 0-1.24l4.36-5.47a.4.4 0 0 1 .71.25v11.68a.4.4 0 0 1-.71.25l-4.36-5.47Zm4.18-10.56a.4.4 0 0 1 .19.63l-5.36 6.73a1 1 0 0 1-1.57 0l-9.52-11.94c-.25-.31.06-.76.44-.63l15.82 5.21Zm-7.73 10.56a1 1 0 0 0 0-1.24L22.7 14a.4.4 0 0 0-.71.25v27.5c0 .37.48.54.71.24l10.67-13.37Zm2.56 1.96a1 1 0 0 0-1.57 0l-9.52 11.94a.4.4 0 0 0 .44.63l15.82-5.21a.4.4 0 0 0 .19-.63l-5.36-6.73Z" clip-rule="evenodd"/>
</svg>