<svg height="28" viewBox="0 0 156 35" fill="none" xmlns="http://www.w3.org/2000/svg">
  <path d="M11.2 2.7H15L10.3 29H5L.2 2.7h4l3.4 22.8 3.6-22.8Zm13.6 5.8h3.8V29h-3.8v-1.6c-.4 1-1.2 1.6-2.6 1.6h-1.5c-2.5 0-3.8-1.2-3.8-3.7v-13c0-2.6 1.3-3.8 3.8-3.8h1.5c1.4 0 2.2.6 2.6 1.6V8.5Zm-2.9 17.4h1.5c.5 0 .9 0 1-.3.3-.2.4-.6.4-1.1V13c0-.5-.1-.9-.3-1-.2-.3-.6-.4-1.1-.4h-1.5c-.5 0-.8 0-1 .2l-.2 1v12c0 .4 0 .8.2 1l1 .1Zm17.2-1v-3.4c0-.5 0-.8-.2-1-.2-.2-.5-.2-1-.2h-2.2c-2.6 0-3.9-1.3-3.9-3.7v-4.4c0-2.4 1.3-3.7 4-3.7h3c2.6 0 4 1.3 4 3.7v2H39v-1.6c0-.5 0-.8-.2-1l-1-.2h-1c-.5 0-.9 0-1 .3-.2 0-.3.4-.3 1V16c0 .6.1.9.3 1 .1.2.5.3 1 .3H39c2.5 0 3.8 1.2 3.8 3.7v4.2c0 2.5-1.3 3.7-3.9 3.7h-3c-2.7 0-4-1.2-4-3.7v-2h3.7v1.6c0 .5 0 .8.3 1l1 .2h1c.5 0 .8 0 1-.2l.2-1ZM46 4.6V.9h4v3.7h-4ZM49.8 29h-3.7V8.5h3.7V29Zm7.5 0h-3.8V.9h3.8V29ZM61 4.6V.9h4v3.7h-4ZM64.8 29H61V8.5h3.8V29Zm6.7 5.8H69v-3h1.7c1.2 0 2-.5 2.2-1.4l.4-1.7h-2L66.8 8.5h4l3 17.2 3-17.2h3.7L76.3 31c-.6 2.5-2.2 3.8-4.8 3.8Zm17.8-32h9.2c2.6 0 3.9 1.1 3.9 3.6v18.9c0 2.5-1.3 3.7-4 3.7h-9.1V2.7Zm9.2 22V6.9c0-.5 0-.8-.2-1l-1-.2H93V26h4.2c.5 0 .8 0 1-.2.2-.2.2-.5.2-1ZM114 8.5h3.8V29H114v-1.6c-.3 1-1.2 1.6-2.6 1.6H110c-2.5 0-3.8-1.2-3.8-3.7V8.5h3.8v16.2c0 .5.1.9.3 1 .1.2.5.2 1 .2h1.5c.5 0 .8 0 1-.3.2-.2.3-.6.3-1.1v-16ZM129.2.9h3.8V29h-3.8v-1.6c-.4 1-1.3 1.6-2.6 1.6H125c-2.6 0-3.8-1.2-3.8-3.7V12.2c0-2.5 1.2-3.7 3.8-3.7h1.5c1.3 0 2.2.5 2.6 1.6V.9Zm-2.9 25h1.5c.5 0 .8 0 1-.3.3-.2.4-.6.4-1.1V13c0-.5-.1-1-.4-1.1-.2-.3-.5-.4-1-.4h-1.5c-.5 0-.8.1-1 .3-.2.1-.2.5-.2 1v12c0 .4 0 .8.2 1l1 .1Zm10.3-21.3V.9h4v3.7h-4Zm3.8 24.4h-3.7V8.5h3.7V29Zm10.1-20.5h1.5c2.5 0 3.8 1.3 3.8 3.7V29H152V12.8c0-.5 0-.8-.2-1l-1-.2h-1.5c-.5 0-.9 0-1 .3-.3.2-.4.6-.4 1.1v16h-3.8V8.5h3.8v1.6c.4-1 1.2-1.6 2.6-1.6Z" fill="#343A3F"/>
</svg>