<svg xmlns="http://www.w3.org/2000/svg" width="912" height="48" fill="none" viewBox="0 0 912 48">
  <g fill="#0043CE" fill-rule="evenodd" clip-path="url(#a)" clip-rule="evenodd">
    <path d="M729.01 18.56c72.7 36.57 133.01 36.46 181.21.1l1.17 1.64c-48.99 36.97-110.14 36.86-183.2.11-60.66-24.5-121.11-24.49-181.44 0-48.9 24.75-109.91 24.69-182.93.04-69.69-22.5-130.17-22.47-181.52-.04-48.89 22.7-109.9 22.64-182.91.04l.57-1.95c72.76 22.5 133.24 22.47 181.53.05h.01l.01-.01c51.91-22.68 112.9-22.64 182.91-.04h.01c72.75 24.57 133.2 24.5 181.49.06l.03-.02.04-.01c60.82-24.7 121.82-24.7 182.95 0l.04.01.03.02Z" opacity=".2"/>
    <path d="M547.48 19.48c60.78-19.3 121.74-19.3 182.84 0l.03.01.03.01c72.74 28.62 133.16 28.55 181.41.07l.98 1.78c-48.94 28.89-110.01 28.82-183.06.08-60.7-19.17-121.24-19.17-181.62 0-48.85 19.34-109.82 19.3-182.82.03C295.54 3.85 235 3.87 183.57 21.43c-48.84 17.73-109.8 17.7-182.8.03l.45-2c72.8 17.62 133.35 17.59 181.7.03h.02c51.87-17.72 112.82-17.7 182.8-.03h.02c72.79 19.22 133.31 19.19 181.65.04l.04-.01.03-.01Z" opacity=".2"/>
  </g>
  <defs>
    <clipPath id="a">
      <path fill="#fff" d="M0 0h912v48H0z"/>
    </clipPath>
  </defs>
</svg>