<svg width="24" height="24" viewBox="0 0 32 32" viewBox="0 0 32 32" fill="none" xmlns="http://www.w3.org/2000/svg">
<path d="M29.7112 15.5307C30.5485 17.7023 32.233 22.6 31.7787 25.7423C31.7787 25.7423 29.1983 24.304 28.8018 19.2098C28.4747 15.0045 27.7681 12.6365 27.7681 12.6365C27.7681 12.6365 29.1103 13.9707 29.7112 15.5307Z" fill="#D99E82"/>
<path d="M9.17443 19.4978C9.17443 19.4978 10.0775 21.5884 9.77532 26.824C9.7211 27.7636 9.58954 28.7227 9.56021 29.5102C7.94954 29.5102 8.09177 31.3449 8.4331 31.3449H11.0127C11.6198 31.3449 12.6953 28.2889 12.9789 24.048C13.2624 19.8062 9.17443 19.4978 9.17443 19.4978ZM19.7433 19.2036C19.7433 19.2036 20.2544 22.3396 22.9887 24.904C23.2171 25.9378 23.6722 28.6658 23.8322 29.5218C22.1531 29.5218 22.6927 31.3413 23.1824 31.3413H25.5344C26.3798 31.3413 26.5051 28.2818 25.7175 24.5022C24.9309 20.7236 19.7433 19.2036 19.7433 19.2036Z" fill="#C1694F"/>
<path d="M28.6238 13.9146C27.51 10.5795 22.2114 10.6898 16.182 11.4569C13.4665 11.8026 12.9465 7.49864 12.9465 6.7582C12.9465 3.53509 10.0629 1.90931 7.17225 2.99909C6.4798 3.25953 5.92602 4.18131 5.61313 4.66309C3.8558 7.36264 1.47269 4.67642 1.24247 7.17153C0.964245 10.1893 2.77224 11.2018 5.73225 11.4569C7.41402 11.6018 7.8878 12.4071 8.25491 15.9173C8.3918 17.2258 8.9118 20.9573 11.2958 22.2302C11.9891 24.8604 12.9278 28.1102 13.2958 29.7635C11.294 30.1866 12.1038 31.7004 12.1038 31.7004C12.1038 31.7004 14.9047 31.6622 15.5136 31.6622C16.2371 31.6622 15.6834 26.3502 14.6825 22.9626C18.9171 23.0009 21.6407 21.7742 22.5038 21.3964C23.4176 24.0275 26.1945 24.6258 26.8158 25.7449C27.2007 26.4382 28.4851 28.752 28.5945 29.7413C27.1705 30.2035 27.6247 31.2809 27.7865 31.6275C28.7491 31.5893 30.6487 31.5893 30.8958 31.5893C31.8825 31.5893 29.8851 25.4524 29.0442 23.8444C28.0825 22.0035 29.7385 17.2498 28.6238 13.9146Z" fill="#D99E82"/>
<path d="M14.4586 21.7458C14.4978 22.0756 14.584 22.5378 14.6835 22.9627C18.9182 23.0009 21.6418 21.7743 22.5049 21.3965C22.3138 20.7031 22.3004 20.2676 22.3529 20.0294C19.336 20.5245 18.3102 21.9894 14.4586 21.7458ZM5.73242 11.4569C7.4142 11.6018 7.88798 12.4071 8.25509 15.9174C8.39198 17.2258 8.91198 20.9574 11.296 22.2303C10.656 19.752 9.55464 11.2187 5.73242 11.4569Z" fill="#F4C7B5"/>
<path d="M2.22472 7.40087C2.12783 8.0782 1.78561 8.46042 1.44339 8.40798C0.767832 8.30398 0.206055 7.44175 0.206055 6.7582C0.206055 6.07464 0.760721 5.9022 1.44339 5.93331C2.3705 5.97598 2.33405 6.63375 2.22472 7.40087Z" fill="#272B2B"/>
<path d="M13.4817 8.44C13.7911 10.6756 12.4533 11.016 11.3635 11.016C10.2737 11.016 8.64884 9.90489 8.92084 7.66489C9.03995 6.68089 9.41417 5.71555 9.63995 4.84266C9.93862 3.68444 10.7057 3.30311 11.3235 3.62755C12.8035 4.40355 13.2817 7.00177 13.4817 8.44Z" fill="#662113"/>
<path d="M7.17255 6.75824C7.62812 6.75824 7.99743 6.38892 7.99743 5.93335C7.99743 5.47777 7.62812 5.10846 7.17255 5.10846C6.71697 5.10846 6.34766 5.47777 6.34766 5.93335C6.34766 6.38892 6.71697 6.75824 7.17255 6.75824Z" fill="#292F33"/>
<path d="M2.71356 9.76978C2.95313 9.76978 3.14734 9.57557 3.14734 9.336C3.14734 9.09643 2.95313 8.90222 2.71356 8.90222C2.47399 8.90222 2.27979 9.09643 2.27979 9.336C2.27979 9.57557 2.47399 9.76978 2.71356 9.76978Z" fill="#C1694F"/>
<path d="M3.28452 8.95381C3.41658 8.95381 3.52363 8.84675 3.52363 8.7147C3.52363 8.58264 3.41658 8.47559 3.28452 8.47559C3.15246 8.47559 3.04541 8.58264 3.04541 8.7147C3.04541 8.84675 3.15246 8.95381 3.28452 8.95381Z" fill="#C1694F"/>
<path d="M3.64438 9.57509C3.77644 9.57509 3.8835 9.46803 3.8835 9.33597C3.8835 9.20392 3.77644 9.09686 3.64438 9.09686C3.51233 9.09686 3.40527 9.20392 3.40527 9.33597C3.40527 9.46803 3.51233 9.57509 3.64438 9.57509Z" fill="#C1694F"/>
<path d="M8.34657 16.4711C9.12168 16.5645 10.6621 16.3458 11.3546 16.192C12.047 16.0382 19.479 13.8356 19.479 13.8356L19.8515 15.0756C19.8515 15.0756 12.1866 17.4498 11.4177 17.68C10.6488 17.9111 8.81324 18.8276 8.81324 18.8276C8.81324 18.8276 8.50035 18.3245 8.34657 17.7422C8.19191 17.1529 8.34657 16.4711 8.34657 16.4711ZM16.5652 16.9005L17.9919 16.4667C17.9919 16.4667 19.2941 20.3733 18.8604 22.6685L17.3092 22.8596C17.3092 22.8596 17.4212 21.4729 17.1857 20.0018C16.9368 18.4507 16.5652 16.9005 16.5652 16.9005Z" fill="#377700"/>
<path d="M7.44813 12.5956C8.37701 12.2471 11.7663 12.3022 14.0215 10.6107C14.5175 10.2382 15.3032 11.3814 14.9521 11.6027C12.0997 13.4009 8.69257 13.6178 7.94413 13.7111C7.44813 13.7734 6.95213 12.7814 7.44813 12.5956Z" fill="#292F33"/>
<path d="M16.1833 11.4569C16.1833 11.4569 16.7504 13.0906 16.0687 13.8355C15.3869 14.5795 14.146 14.6418 14.146 15.696C14.146 16.7502 14.89 17.6186 15.4482 17.4942C16.0064 17.3698 18.9211 17.1218 19.9753 16.3778C21.0296 15.6338 19.6651 11.0444 19.6651 11.0444C19.6651 11.0444 18.7344 10.7964 17.7424 11.0444C16.7504 11.2924 16.1833 11.4569 16.1833 11.4569Z" fill="#489C00"/>
<path d="M18.3928 14.9813C18.2888 15.0085 18.1804 15.0139 18.0742 14.9972C17.9681 14.9805 17.8665 14.942 17.7759 14.8841C17.6854 14.8263 17.6077 14.7503 17.5479 14.661C17.4881 14.5718 17.4474 14.4711 17.4284 14.3653C17.2488 13.3538 17.079 11.5929 17.911 10.9618C19.1048 10.056 25.5706 7.05065 26.1901 6.80176C26.7928 6.55998 26.7021 5.88887 26.9795 4.95732C27.2088 4.18487 28.743 4.14576 28.3688 5.38487C27.9564 6.74932 27.8408 7.44532 27.2026 7.71732C25.7848 8.31999 20.2399 11.1244 19.1741 11.672C18.7697 11.88 18.8826 13.2747 18.9928 14.1253C19.0165 14.3128 18.971 14.5025 18.8647 14.6588C18.7585 14.815 18.5989 14.9272 18.4159 14.9742C18.4079 14.9778 18.3999 14.9795 18.3928 14.9813Z" fill="#377700"/>
</svg>
