<svg fill="none" xmlns="http://www.w3.org/2000/svg" viewBox="0 0 48 48">
  <path fill="#F3F4F7" d="M0 0h48v48H0z"/>
  <path fill-rule="evenodd" clip-rule="evenodd" d="M16.245 24.769a7.628 7.628 0 1 0 6.951 6.648 7.63 7.63 0 0 1-6.95-6.648ZM23.256 15.628a7.628 7.628 0 1 0-7.048 7.606 7.63 7.63 0 0 1 7.026-7.026c.014-.192.022-.385.022-.58ZM31.417 23.197a7.628 7.628 0 1 0-6.648-6.951 7.63 7.63 0 0 1 6.648 6.95ZM24.808 31.378a7.628 7.628 0 1 0 6.57-6.57 7.632 7.632 0 0 1-6.57 6.57Z" fill="#000"/>
</svg>