<svg width="24" height="24" viewBox="0 0 32 32" fill="none" xmlns="http://www.w3.org/2000/svg">
  <g filter="url(#filter0_i_707_462)">
    <path d="M18.79 11.52c3.25.51 7.02 2.96 7.16 7.89.12 4.64-3.18 6.86-5.27 8.17" stroke="#B5B2BC" stroke-width="3"/>
  </g>
  <path d="M18.79 11.52c3.25.51 7.02 2.96 7.16 7.89.12 4.64-3.18 6.86-5.27 8.17" stroke="url(#paint0_radial_707_462)" stroke-width="3"/>
  <g filter="url(#filter1_f_707_462)">
    <path d="M19.12 11.52c3.25.51 7.02 2.96 7.15 7.89.13 4.64-3.17 6.86-5.26 8.17" stroke="url(#paint1_radial_707_462)" stroke-width=".75"/>
  </g>
  <g filter="url(#filter2_i_707_462)">
    <path d="M11.75 13.09a1.94 1.94 0 0 1 3.16 2.25l-1.3 1.83a1.94 1.94 0 1 1-3.16-2.26l1.3-1.82Z" fill="url(#paint2_linear_707_462)"/>
    <path d="M11.75 13.09a1.94 1.94 0 0 1 3.16 2.25l-1.3 1.83a1.94 1.94 0 1 1-3.16-2.26l1.3-1.82Z" fill="url(#paint3_radial_707_462)"/>
  </g>
  <g filter="url(#filter3_ii_707_462)">
    <path d="M5 17.89a1.27 1.27 0 0 1 1.77-.32l13.19 9.24a1.28 1.28 0 0 1-1.46 2.09L5.3 19.66A1.28 1.28 0 0 1 5 17.9Z" fill="url(#paint4_linear_707_462)"/>
  </g>
  <g filter="url(#filter4_ii_707_462)">
    <path d="M18.1 4.1a4.24 4.24 0 0 0-3.96 1.75l-3.2 4.5a4.24 4.24 0 1 0 6.92 4.93l3.2-4.5a4.24 4.24 0 0 0 .36-4.32L18.1 4.1Z" fill="url(#paint5_linear_707_462)"/>
    <path d="M18.1 4.1a4.24 4.24 0 0 0-3.96 1.75l-3.2 4.5a4.24 4.24 0 1 0 6.92 4.93l3.2-4.5a4.24 4.24 0 0 0 .36-4.32L18.1 4.1Z" fill="url(#paint6_radial_707_462)"/>
    <path d="M18.1 4.1a4.24 4.24 0 0 0-3.96 1.75l-3.2 4.5a4.24 4.24 0 1 0 6.92 4.93l3.2-4.5a4.24 4.24 0 0 0 .36-4.32L18.1 4.1Z" fill="url(#paint7_radial_707_462)"/>
  </g>
  <path d="M18.1 4.1a4.24 4.24 0 0 0-3.96 1.75l-3.2 4.5a4.24 4.24 0 1 0 6.92 4.93l3.2-4.5a4.24 4.24 0 0 0 .36-4.32L18.1 4.1Z" fill="url(#paint8_linear_707_462)"/>
  <path d="M18.1 4.1a4.24 4.24 0 0 0-3.96 1.75l-3.2 4.5a4.24 4.24 0 1 0 6.92 4.93l3.2-4.5a4.24 4.24 0 0 0 .36-4.32L18.1 4.1Z" fill="url(#paint9_radial_707_462)"/>
  <path d="M19.08 2.71a1 1 0 0 1 1.4-.23l1.7 1.2a1 1 0 0 1 .23 1.4l-.99 1.39L18.1 4.1l.99-1.39Z" fill="url(#paint10_linear_707_462)"/>
  <path d="M19.08 2.71a1 1 0 0 1 1.4-.23l1.7 1.2a1 1 0 0 1 .23 1.4l-.99 1.39L18.1 4.1l.99-1.39Z" fill="url(#paint11_linear_707_462)"/>
  <path d="M19.08 2.71a1 1 0 0 1 1.4-.23l1.7 1.2a1 1 0 0 1 .23 1.4l-.99 1.39L18.1 4.1l.99-1.39Z" fill="url(#paint12_radial_707_462)"/>
  <g filter="url(#filter5_iii_707_462)">
    <path d="M2.13 28.52a3 3 0 0 1 3-3h21.82a3 3 0 0 1 3 3v.05a1.2 1.2 0 0 1-1.2 1.2H3.33a1.2 1.2 0 0 1-1.2-1.2v-.05Z" fill="url(#paint13_linear_707_462)"/>
  </g>
  <path d="M10.5 11.13c.12-.27.26-.53.44-.77l.8-1.14 6.92 4.92-.8 1.14c-.18.24-.37.46-.6.66l-6.76-4.81Z" fill="url(#paint14_linear_707_462)"/>
  <path d="M10.5 11.13c.12-.27.26-.53.44-.77l.8-1.14 6.92 4.92-.8 1.14c-.18.24-.37.46-.6.66l-6.76-4.81Z" fill="url(#paint15_linear_707_462)"/>
  <path d="M10.5 11.13c.12-.27.26-.53.44-.77l.8-1.14 6.92 4.92-.8 1.14c-.18.24-.37.46-.6.66l-6.76-4.81Z" fill="url(#paint16_linear_707_462)"/>
  <defs>
    <linearGradient id="paint2_linear_707_462" x1="10.36" y1="15.54" x2="13.05" y2="17.67" gradientUnits="userSpaceOnUse">
      <stop stop-color="#6C6C73"/>
      <stop offset="1" stop-color="#444060"/>
    </linearGradient>
    <linearGradient id="paint4_linear_707_462" x1="5.23" y1="18.63" x2="18.23" y2="27.5" gradientUnits="userSpaceOnUse">
      <stop stop-color="#43B6FF"/>
      <stop offset="1" stop-color="#4184D5"/>
    </linearGradient>
    <linearGradient id="paint5_linear_707_462" x1="19.54" y1="5.22" x2="14.01" y2="12.69" gradientUnits="userSpaceOnUse">
      <stop stop-color="#C4C2C7"/>
      <stop offset="1" stop-color="#B3ABBD"/>
    </linearGradient>
    <linearGradient id="paint8_linear_707_462" x1="19.76" y1="4.87" x2="19.19" y2="5.77" gradientUnits="userSpaceOnUse">
      <stop stop-color="#C5C3C7"/>
      <stop offset="1" stop-color="#C5C3C7" stop-opacity="0"/>
    </linearGradient>
    <linearGradient id="paint10_linear_707_462" x1="19.64" y1="3.57" x2="22.24" y2="5.21" gradientUnits="userSpaceOnUse">
      <stop stop-color="#6E6B71"/>
      <stop offset="1" stop-color="#61596A"/>
    </linearGradient>
    <linearGradient id="paint11_linear_707_462" x1="18.63" y1="3.5" x2="19.54" y2="4" gradientUnits="userSpaceOnUse">
      <stop stop-color="#585758"/>
      <stop offset="1" stop-color="#585758" stop-opacity="0"/>
    </linearGradient>
    <linearGradient id="paint13_linear_707_462" x1="3.73" y1="29.19" x2="29.29" y2="29.19" gradientUnits="userSpaceOnUse">
      <stop stop-color="#9A8DA8"/>
      <stop offset="1" stop-color="#9688A5"/>
    </linearGradient>
    <linearGradient id="paint14_linear_707_462" x1="12.13" y1="10.99" x2="17.25" y2="14.64" gradientUnits="userSpaceOnUse">
      <stop stop-color="#E5DCEF"/>
      <stop offset="1" stop-color="#F7E0FF"/>
    </linearGradient>
    <linearGradient id="paint15_linear_707_462" x1="18.18" y1="15.63" x2="15.44" y2="13.56" gradientUnits="userSpaceOnUse">
      <stop offset=".09" stop-color="#B5A1CB"/>
      <stop offset="1" stop-color="#DFC9F7" stop-opacity="0"/>
    </linearGradient>
    <linearGradient id="paint16_linear_707_462" x1="10.89" y1="10.26" x2="11.94" y2="11.05" gradientUnits="userSpaceOnUse">
      <stop stop-color="#B6B5B7"/>
      <stop offset="1" stop-color="#B6B5B7" stop-opacity="0"/>
    </linearGradient>
    <radialGradient id="paint0_radial_707_462" cx="0" cy="0" r="1" gradientUnits="userSpaceOnUse" gradientTransform="matrix(3 -3.5 6 5 19.86 15.18)">
      <stop offset=".34" stop-color="#765398"/>
      <stop offset="1" stop-color="#A892C0" stop-opacity="0"/>
    </radialGradient>
    <radialGradient id="paint1_radial_707_462" cx="0" cy="0" r="1" gradientUnits="userSpaceOnUse" gradientTransform="matrix(-11.1 2.2 -2.9 -14.4 27.56 16.55)">
      <stop stop-color="#D5CDDD"/>
      <stop offset="1" stop-color="#D5CDDD" stop-opacity="0"/>
    </radialGradient>
    <radialGradient id="paint3_radial_707_462" cx="0" cy="0" r="1" gradientUnits="userSpaceOnUse" gradientTransform="rotate(128 2.18 11.04) scale(1.5)">
      <stop stop-color="#554170"/>
      <stop offset="1" stop-color="#554170" stop-opacity="0"/>
    </radialGradient>
    <radialGradient id="paint6_radial_707_462" cx="0" cy="0" r="1" gradientUnits="userSpaceOnUse" gradientTransform="matrix(1 -4.7 4 .8 14.54 15.25)">
      <stop stop-color="#B699D4"/>
      <stop offset="1" stop-color="#B699D4" stop-opacity="0"/>
    </radialGradient>
    <radialGradient id="paint7_radial_707_462" cx="0" cy="0" r="1" gradientUnits="userSpaceOnUse" gradientTransform="matrix(-2.5 3 -3.3 -2.8 19.92 7.66)">
      <stop offset=".11" stop-color="#DED8E5"/>
      <stop offset="1" stop-color="#C4C1C7" stop-opacity="0"/>
    </radialGradient>
    <radialGradient id="paint9_radial_707_462" cx="0" cy="0" r="1" gradientUnits="userSpaceOnUse" gradientTransform="matrix(0 -1.9 4.6 -.2 15.24 17.06)">
      <stop offset=".08" stop-color="#8167AE"/>
      <stop offset="1" stop-color="#B29DC8" stop-opacity="0"/>
    </radialGradient>
    <radialGradient id="paint12_radial_707_462" cx="0" cy="0" r="1" gradientUnits="userSpaceOnUse" gradientTransform="matrix(-.4 .5 -1.4 -1 21.41 3.77)">
      <stop stop-color="#8C8990"/>
      <stop offset="1" stop-color="#8C8990" stop-opacity="0"/>
    </radialGradient>
    <filter id="filter0_i_707_462" x="18.55" y="10.03" width="8.89" height="19.06" filterUnits="userSpaceOnUse" color-interpolation-filters="sRGB">
      <feFlood flood-opacity="0" result="BackgroundImageFix"/>
      <feBlend in="SourceGraphic" in2="BackgroundImageFix" result="shape"/>
      <feColorMatrix in="SourceAlpha" values="0 0 0 0 0 0 0 0 0 0 0 0 0 0 0 0 0 0 127 0" result="hardAlpha"/>
      <feOffset dy=".25"/>
      <feGaussianBlur stdDeviation=".5"/>
      <feComposite in2="hardAlpha" operator="arithmetic" k2="-1" k3="1"/>
      <feColorMatrix values="0 0 0 0 0.545098 0 0 0 0 0.541176 0 0 0 0 0.572549 0 0 0 1 0"/>
      <feBlend in2="shape" result="effect1_innerShadow_707_462"/>
    </filter>
    <filter id="filter1_f_707_462" x="18.31" y="10.4" width="9.09" height="18.25" filterUnits="userSpaceOnUse" color-interpolation-filters="sRGB">
      <feFlood flood-opacity="0" result="BackgroundImageFix"/>
      <feBlend in="SourceGraphic" in2="BackgroundImageFix" result="shape"/>
      <feGaussianBlur stdDeviation=".38" result="effect1_foregroundBlur_707_462"/>
    </filter>
    <filter id="filter2_i_707_462" x="10.06" y="12.32" width="5.18" height="5.7" filterUnits="userSpaceOnUse" color-interpolation-filters="sRGB">
      <feFlood flood-opacity="0" result="BackgroundImageFix"/>
      <feBlend in="SourceGraphic" in2="BackgroundImageFix" result="shape"/>
      <feColorMatrix in="SourceAlpha" values="0 0 0 0 0 0 0 0 0 0 0 0 0 0 0 0 0 0 127 0" result="hardAlpha"/>
      <feOffset/>
      <feGaussianBlur stdDeviation=".5"/>
      <feComposite in2="hardAlpha" operator="arithmetic" k2="-1" k3="1"/>
      <feColorMatrix values="0 0 0 0 0.286275 0 0 0 0 0.243137 0 0 0 0 0.415686 0 0 0 1 0"/>
      <feBlend in2="shape" result="effect1_innerShadow_707_462"/>
    </filter>
    <filter id="filter3_ii_707_462" x="4.72" y="17.29" width="15.83" height="11.88" filterUnits="userSpaceOnUse" color-interpolation-filters="sRGB">
      <feFlood flood-opacity="0" result="BackgroundImageFix"/>
      <feBlend in="SourceGraphic" in2="BackgroundImageFix" result="shape"/>
      <feColorMatrix in="SourceAlpha" values="0 0 0 0 0 0 0 0 0 0 0 0 0 0 0 0 0 0 127 0" result="hardAlpha"/>
      <feOffset dx=".05" dy="-.05"/>
      <feGaussianBlur stdDeviation=".05"/>
      <feComposite in2="hardAlpha" operator="arithmetic" k2="-1" k3="1"/>
      <feColorMatrix values="0 0 0 0 0.121569 0 0 0 0 0.396078 0 0 0 0 0.721569 0 0 0 1 0"/>
      <feBlend in2="shape" result="effect1_innerShadow_707_462"/>
      <feColorMatrix in="SourceAlpha" values="0 0 0 0 0 0 0 0 0 0 0 0 0 0 0 0 0 0 127 0" result="hardAlpha"/>
      <feOffset dx="-.05" dy=".05"/>
      <feGaussianBlur stdDeviation=".05"/>
      <feComposite in2="hardAlpha" operator="arithmetic" k2="-1" k3="1"/>
      <feColorMatrix values="0 0 0 0 0.290196 0 0 0 0 0.741176 0 0 0 0 1 0 0 0 1 0"/>
      <feBlend in2="effect1_innerShadow_707_462" result="effect2_innerShadow_707_462"/>
    </filter>
    <filter id="filter4_ii_707_462" x="9.93" y="4.07" width="12.42" height="13.28" filterUnits="userSpaceOnUse" color-interpolation-filters="sRGB">
      <feFlood flood-opacity="0" result="BackgroundImageFix"/>
      <feBlend in="SourceGraphic" in2="BackgroundImageFix" result="shape"/>
      <feColorMatrix in="SourceAlpha" values="0 0 0 0 0 0 0 0 0 0 0 0 0 0 0 0 0 0 127 0" result="hardAlpha"/>
      <feOffset dx=".5" dy=".25"/>
      <feGaussianBlur stdDeviation=".75"/>
      <feComposite in2="hardAlpha" operator="arithmetic" k2="-1" k3="1"/>
      <feColorMatrix values="0 0 0 0 0.54902 0 0 0 0 0.545098 0 0 0 0 0.54902 0 0 0 1 0"/>
      <feBlend in2="shape" result="effect1_innerShadow_707_462"/>
      <feColorMatrix in="SourceAlpha" values="0 0 0 0 0 0 0 0 0 0 0 0 0 0 0 0 0 0 127 0" result="hardAlpha"/>
      <feOffset dx="-.2" dy=".1"/>
      <feGaussianBlur stdDeviation=".15"/>
      <feComposite in2="hardAlpha" operator="arithmetic" k2="-1" k3="1"/>
      <feColorMatrix values="0 0 0 0 0.682353 0 0 0 0 0.639216 0 0 0 0 0.733333 0 0 0 1 0"/>
      <feBlend in2="effect1_innerShadow_707_462" result="effect2_innerShadow_707_462"/>
    </filter>
    <filter id="filter5_iii_707_462" x="1.48" y="25.02" width="28.96" height="5.4" filterUnits="userSpaceOnUse" color-interpolation-filters="sRGB">
      <feFlood flood-opacity="0" result="BackgroundImageFix"/>
      <feBlend in="SourceGraphic" in2="BackgroundImageFix" result="shape"/>
      <feColorMatrix in="SourceAlpha" values="0 0 0 0 0 0 0 0 0 0 0 0 0 0 0 0 0 0 127 0" result="hardAlpha"/>
      <feOffset dx="-.65" dy=".8"/>
      <feGaussianBlur stdDeviation=".33"/>
      <feComposite in2="hardAlpha" operator="arithmetic" k2="-1" k3="1"/>
      <feColorMatrix values="0 0 0 0 0.627451 0 0 0 0 0.596078 0 0 0 0 0.662745 0 0 0 1 0"/>
      <feBlend in2="shape" result="effect1_innerShadow_707_462"/>
      <feColorMatrix in="SourceAlpha" values="0 0 0 0 0 0 0 0 0 0 0 0 0 0 0 0 0 0 127 0" result="hardAlpha"/>
      <feOffset dx=".5" dy=".5"/>
      <feGaussianBlur stdDeviation=".33"/>
      <feComposite in2="hardAlpha" operator="arithmetic" k2="-1" k3="1"/>
      <feColorMatrix values="0 0 0 0 0.494118 0 0 0 0 0.501961 0 0 0 0 0.54902 0 0 0 1 0"/>
      <feBlend in2="effect1_innerShadow_707_462" result="effect2_innerShadow_707_462"/>
      <feColorMatrix in="SourceAlpha" values="0 0 0 0 0 0 0 0 0 0 0 0 0 0 0 0 0 0 127 0" result="hardAlpha"/>
      <feOffset dy="-.5"/>
      <feGaussianBlur stdDeviation=".33"/>
      <feComposite in2="hardAlpha" operator="arithmetic" k2="-1" k3="1"/>
      <feColorMatrix values="0 0 0 0 0.47451 0 0 0 0 0.286275 0 0 0 0 0.619608 0 0 0 1 0"/>
      <feBlend in2="effect2_innerShadow_707_462" result="effect3_innerShadow_707_462"/>
    </filter>
  </defs>
</svg>