<svg fill="none" xmlns="http://www.w3.org/2000/svg" viewBox="0 0 48 48">
  <path fill="#FF622D" d="M0 0h48v48H0z"/>
  <path d="M37.93 23.846c0 .755-.364.878-1.265.878-.96 0-1.134-.17-1.235-.94-.19-1.957-1.439-3.622-3.532-3.807-.668-.062-.828-.324-.828-1.203 0-.817.116-1.202.712-1.202 3.648.015 6.147 3.114 6.147 6.274Zm5.303 0c0-5.873-3.749-12.085-12.41-12.085H13.617c-.349 0-.567.185-.567.524 0 .185.131.354.247.447.625.524 1.555 1.11 2.776 1.757a39.162 39.162 0 0 0 3.052 1.45c.392.169.537.354.537.585 0 .324-.218.524-.639.524H5.363c-.407 0-.596.277-.596.555a.87.87 0 0 0 .262.632c1.104 1.233 2.877 2.713 5.45 4.424a77.397 77.397 0 0 0 7.265 4.239c.378.185.494.4.494.632-.014.262-.203.478-.64.478h-6.262c-.35 0-.553.2-.553.509 0 .17.131.385.306.554 1.424 1.372 3.705 2.868 6.742 4.24 4.055 1.834 8.167 2.928 12.788 2.928 8.763 0 12.614-6.967 12.614-12.393Zm-11.45 8.678c-4.477 0-8.226-3.869-8.226-8.694 0-4.747 3.735-8.57 8.225-8.57 4.592 0 8.196 3.807 8.196 8.57 0 4.825-3.59 8.694-8.196 8.694Z" fill="#fff"/>
</svg>