<svg width="24" height="24" viewBox="0 0 32 32" fill="none" xmlns="http://www.w3.org/2000/svg">
  <g filter="url(#filter0_iii_708_769)">
    <path fill-rule="evenodd" clip-rule="evenodd" d="M6.2 2.8a2.4 2.4 0 0 0-4.1 1.7v23.4a2 2 0 0 0 2 2h23.4a2.4 2.4 0 0 0 1.7-4.09l-23-23Zm1.7 20.43v-6.91a.75.75 0 0 1 1.29-.53l6.85 6.91a.75.75 0 0 1-.53 1.28H8.65a.75.75 0 0 1-.75-.75Z" fill="url(#paint0_linear_708_769)"/>
  </g>
  <path d="M7.18 3.78 5.24 5.72a.53.53 0 1 1-.75-.75l1.94-1.94.75.75ZM11.9 8.5 10 10.4a.53.53 0 1 0 .75.75l1.9-1.9-.75-.75Zm5.47 5.48-1.87 1.86a.53.53 0 0 0 .75.75l1.87-1.86-.75-.75Zm5.49 5.5L21 21.33a.53.53 0 1 0 .75.75l1.85-1.86-.74-.75Zm5.42 5.43-1.84 1.84a.53.53 0 1 0 .75.75l1.84-1.84-.75-.75Zm-3.51-2a.53.53 0 1 1 .75.76l-.75.74a.53.53 0 0 1-.75-.75l.75-.74Zm-5.41-5.48a.53.53 0 1 1 .75.75l-.75.75a.53.53 0 0 1-.75-.75l.75-.75Zm-5.47-5.45a.53.53 0 1 1 .75.75l-.75.75a.53.53 0 0 1-.75-.75l.75-.75ZM8.4 6.5a.53.53 0 0 1 .75.75L8.4 8a.53.53 0 1 1-.75-.75l.75-.75Z" fill="#9D73E9"/>
  <defs>
    <linearGradient id="paint0_linear_708_769" x1="18.87" y1="16.37" x2="8.12" y2="26.81" gradientUnits="userSpaceOnUse">
      <stop stop-color="#C3C1CA"/>
      <stop offset="1" stop-color="#B4B1BB"/>
    </linearGradient>
    <filter id="filter0_iii_708_769" x="1.81" y="1.79" width="28.39" height="28.41" filterUnits="userSpaceOnUse" color-interpolation-filters="sRGB">
      <feFlood flood-opacity="0" result="BackgroundImageFix"/>
      <feBlend in="SourceGraphic" in2="BackgroundImageFix" result="shape"/>
      <feColorMatrix in="SourceAlpha" values="0 0 0 0 0 0 0 0 0 0 0 0 0 0 0 0 0 0 127 0" result="hardAlpha"/>
      <feOffset dx=".3" dy="-.3"/>
      <feGaussianBlur stdDeviation=".3"/>
      <feComposite in2="hardAlpha" operator="arithmetic" k2="-1" k3="1"/>
      <feColorMatrix values="0 0 0 0 0.658824 0 0 0 0 0.65098 0 0 0 0 0.678431 0 0 0 1 0"/>
      <feBlend in2="shape" result="effect1_innerShadow_708_769"/>
      <feColorMatrix in="SourceAlpha" values="0 0 0 0 0 0 0 0 0 0 0 0 0 0 0 0 0 0 127 0" result="hardAlpha"/>
      <feOffset dy="-.3"/>
      <feGaussianBlur stdDeviation=".3"/>
      <feComposite in2="hardAlpha" operator="arithmetic" k2="-1" k3="1"/>
      <feColorMatrix values="0 0 0 0 0.529412 0 0 0 0 0.494118 0 0 0 0 0.615686 0 0 0 1 0"/>
      <feBlend in2="effect1_innerShadow_708_769" result="effect2_innerShadow_708_769"/>
      <feColorMatrix in="SourceAlpha" values="0 0 0 0 0 0 0 0 0 0 0 0 0 0 0 0 0 0 127 0" result="hardAlpha"/>
      <feOffset dx="-.3" dy=".3"/>
      <feGaussianBlur stdDeviation=".3"/>
      <feComposite in2="hardAlpha" operator="arithmetic" k2="-1" k3="1"/>
      <feColorMatrix values="0 0 0 0 0.913725 0 0 0 0 0.909804 0 0 0 0 0.92549 0 0 0 1 0"/>
      <feBlend in2="effect2_innerShadow_708_769" result="effect3_innerShadow_708_769"/>
    </filter>
  </defs>
</svg>