<svg width="24" height="24" viewBox="0 0 32 32" fill="none" xmlns="http://www.w3.org/2000/svg">
  <path d="M18.77 15.97H8.23v14.17h10.54V15.97Z" fill="url(#paint0_radial_707_488)"/>
  <path d="M18.77 15.97H8.23v14.17h10.54V15.97Z" fill="url(#paint1_radial_707_488)"/>
  <path d="M18.77 15.97H8.23v14.17h10.54V15.97Z" fill="url(#paint2_radial_707_488)"/>
  <path d="M17.43 5.5a4.42 4.42 0 1 1 8.53 2.28l-.74 2.75a4.66 4.66 0 0 1-3.66 3.38 4.13 4.13 0 0 1-3.38-.92 4.66 4.66 0 0 1-1.5-4.74l.75-2.75Z" fill="url(#paint3_radial_707_488)"/>
  <path d="M17.43 5.5a4.42 4.42 0 1 1 8.53 2.28l-.74 2.75a4.66 4.66 0 0 1-3.66 3.38 4.13 4.13 0 0 1-3.38-.92 4.66 4.66 0 0 1-1.5-4.74l.75-2.75Z" fill="url(#paint4_radial_707_488)"/>
  <path d="M17.43 5.5a4.42 4.42 0 1 1 8.53 2.28l-.74 2.75a4.66 4.66 0 0 1-3.66 3.38 4.13 4.13 0 0 1-3.38-.92 4.66 4.66 0 0 1-1.5-4.74l.75-2.75Z" fill="url(#paint5_radial_707_488)"/>
  <g filter="url(#filter0_i_707_488)">
    <path d="M13.85 19.56a2.55 2.55 0 0 0-1.83-2.43 36 36 0 0 1-4.61-1.65C5.2 14.4 4.1 13.03 4.47 11c.29-1.63 2.01-3.35 6.08-2.66l3.72 3.79h6.58a7 7 0 0 1 7 7v11h-14V19.56Z" fill="url(#paint6_radial_707_488)"/>
    <path d="M13.85 19.56a2.55 2.55 0 0 0-1.83-2.43 36 36 0 0 1-4.61-1.65C5.2 14.4 4.1 13.03 4.47 11c.29-1.63 2.01-3.35 6.08-2.66l3.72 3.79h6.58a7 7 0 0 1 7 7v11h-14V19.56Z" fill="url(#paint7_radial_707_488)"/>
    <path d="M13.85 19.56a2.55 2.55 0 0 0-1.83-2.43 36 36 0 0 1-4.61-1.65C5.2 14.4 4.1 13.03 4.47 11c.29-1.63 2.01-3.35 6.08-2.66l3.72 3.79h6.58a7 7 0 0 1 7 7v11h-14V19.56Z" fill="url(#paint8_radial_707_488)"/>
    <path d="M13.85 19.56a2.55 2.55 0 0 0-1.83-2.43 36 36 0 0 1-4.61-1.65C5.2 14.4 4.1 13.03 4.47 11c.29-1.63 2.01-3.35 6.08-2.66l3.72 3.79h6.58a7 7 0 0 1 7 7v11h-14V19.56Z" fill="url(#paint9_radial_707_488)"/>
    <path d="M13.85 19.56a2.55 2.55 0 0 0-1.83-2.43 36 36 0 0 1-4.61-1.65C5.2 14.4 4.1 13.03 4.47 11c.29-1.63 2.01-3.35 6.08-2.66l3.72 3.79h6.58a7 7 0 0 1 7 7v11h-14V19.56Z" fill="url(#paint10_radial_707_488)"/>
    <path d="M13.85 19.56a2.55 2.55 0 0 0-1.83-2.43 36 36 0 0 1-4.61-1.65C5.2 14.4 4.1 13.03 4.47 11c.29-1.63 2.01-3.35 6.08-2.66l3.72 3.79h6.58a7 7 0 0 1 7 7v11h-14V19.56Z" fill="url(#paint11_radial_707_488)"/>
  </g>
  <g filter="url(#filter1_i_707_488)">
    <path d="M17.85 5.5a4.42 4.42 0 1 0-8.51 2.28l.74 2.75a4.67 4.67 0 0 0 3.66 3.38 4.16 4.16 0 0 0 3.39-.92 4.65 4.65 0 0 0 1.48-4.74l-.76-2.75Z" fill="url(#paint12_radial_707_488)"/>
  </g>
  <path d="m6.97 15.26-1.6 6.3a4.3 4.3 0 0 0 2.29 4.98c.6.3 1.24.45 1.9.45h8a2.21 2.21 0 0 0 2.22-2.17 2.25 2.25 0 0 0-2.26-2.25H9.85a.15.15 0 0 1-.15-.2l1.5-5.5a30.81 30.81 0 0 1-4.23-1.61Z" fill="#21182E"/>
  <path d="m6.97 15.26-1.6 6.3a4.3 4.3 0 0 0 2.29 4.98c.6.3 1.24.45 1.9.45h8a2.21 2.21 0 0 0 2.22-2.17 2.25 2.25 0 0 0-2.26-2.25H9.85a.15.15 0 0 1-.15-.2l1.5-5.5a30.81 30.81 0 0 1-4.23-1.61Z" fill="url(#paint13_radial_707_488)"/>
  <path d="m6.97 15.26-1.6 6.3a4.3 4.3 0 0 0 2.29 4.98c.6.3 1.24.45 1.9.45h8a2.21 2.21 0 0 0 2.22-2.17 2.25 2.25 0 0 0-2.26-2.25H9.85a.15.15 0 0 1-.15-.2l1.5-5.5a30.81 30.81 0 0 1-4.23-1.61Z" fill="url(#paint14_linear_707_488)"/>
  <g filter="url(#filter2_f_707_488)">
    <path d="M7.03 22.67h1.85l1.15-4.63-1.56-.84-1.44 5.47Z" fill="url(#paint15_linear_707_488)"/>
  </g>
  <g filter="url(#filter3_f_707_488)">
    <path d="M8.23 23.82h8.71v1.82H8.23v-1.82Z" fill="url(#paint16_linear_707_488)"/>
  </g>
  <g filter="url(#filter4_i_707_488)">
    <path d="M20.25 18.48a2.21 2.21 0 0 1-.8-4.28l5.88-2.25a2.21 2.21 0 0 1 1.59 4.12l-5.87 2.25c-.26.1-.53.16-.8.16Z" fill="url(#paint17_radial_707_488)"/>
  </g>
  <defs>
    <radialGradient id="paint0_radial_707_488" cx="0" cy="0" r="1" gradientUnits="userSpaceOnUse" gradientTransform="matrix(-.4 10.7 -8 -.3 13.9 19.39)">
      <stop offset=".19" stop-color="#392B4B"/>
      <stop offset="1" stop-color="#3D3746"/>
    </radialGradient>
    <radialGradient id="paint1_radial_707_488" cx="0" cy="0" r="1" gradientUnits="userSpaceOnUse" gradientTransform="matrix(-1.3 5.6 -2.5 -.6 14.03 27.32)">
      <stop offset=".47" stop-color="#31253E"/>
      <stop offset="1" stop-color="#31253E" stop-opacity="0"/>
    </radialGradient>
    <radialGradient id="paint2_radial_707_488" cx="0" cy="0" r="1" gradientUnits="userSpaceOnUse" gradientTransform="matrix(-1.5 6.8 -2.3 -.5 10.4 18.14)">
      <stop stop-color="#1C0C30"/>
      <stop offset="1" stop-color="#1C0C30" stop-opacity="0"/>
    </radialGradient>
    <radialGradient id="paint3_radial_707_488" cx="0" cy="0" r="1" gradientUnits="userSpaceOnUse" gradientTransform="matrix(-6.4 5.2 -5 -6.1 25.28 4.45)">
      <stop offset=".13" stop-color="#A38AD0"/>
      <stop offset=".93" stop-color="#674E8D"/>
    </radialGradient>
    <radialGradient id="paint4_radial_707_488" cx="0" cy="0" r="1" gradientUnits="userSpaceOnUse" gradientTransform="matrix(2 -5.2 9.6 3.7 17.4 12.95)">
      <stop offset=".17" stop-color="#441F6B"/>
      <stop offset="1" stop-color="#614489" stop-opacity="0"/>
    </radialGradient>
    <radialGradient id="paint5_radial_707_488" cx="0" cy="0" r="1" gradientUnits="userSpaceOnUse" gradientTransform="matrix(7 -8.7 8.5 6.8 18.69 11.17)">
      <stop offset=".79" stop-color="#947CBE" stop-opacity="0"/>
      <stop offset="1" stop-color="#947CBE"/>
    </radialGradient>
    <radialGradient id="paint6_radial_707_488" cx="0" cy="0" r="1" gradientUnits="userSpaceOnUse" gradientTransform="rotate(128 9.63 13.31) scale(15.1 16.1)">
      <stop stop-color="#9F85CB"/>
      <stop offset="1" stop-color="#7854B0"/>
    </radialGradient>
    <radialGradient id="paint7_radial_707_488" cx="0" cy="0" r="1" gradientUnits="userSpaceOnUse" gradientTransform="matrix(-5.2 -2.1 1.3 -3.2 11.88 10.3)">
      <stop stop-color="#8E76B7"/>
      <stop offset="1" stop-color="#8E76B7" stop-opacity="0"/>
    </radialGradient>
    <radialGradient id="paint8_radial_707_488" cx="0" cy="0" r="1" gradientUnits="userSpaceOnUse" gradientTransform="matrix(-3.5 -1.6 0 -.2 11.63 10.76)">
      <stop stop-color="#937FB7"/>
      <stop offset="1" stop-color="#937FB7" stop-opacity="0"/>
    </radialGradient>
    <radialGradient id="paint9_radial_707_488" cx="0" cy="0" r="1" gradientUnits="userSpaceOnUse" gradientTransform="matrix(12.4 5.2 -1 2.5 4.4 14.42)">
      <stop stop-color="#7247AD"/>
      <stop offset="1" stop-color="#7247AD" stop-opacity="0"/>
    </radialGradient>
    <radialGradient id="paint10_radial_707_488" cx="0" cy="0" r="1" gradientUnits="userSpaceOnUse" gradientTransform="matrix(0 -11 5 0 19.22 30.14)">
      <stop stop-color="#684C8E"/>
      <stop offset="1" stop-color="#684C8E" stop-opacity="0"/>
    </radialGradient>
    <radialGradient id="paint11_radial_707_488" cx="0" cy="0" r="1" gradientUnits="userSpaceOnUse" gradientTransform="matrix(0 -13.1 6.3 0 24.03 30.14)">
      <stop stop-color="#856CAB"/>
      <stop offset="1" stop-color="#856CAB" stop-opacity="0"/>
    </radialGradient>
    <radialGradient id="paint12_radial_707_488" cx="0" cy="0" r="1" gradientUnits="userSpaceOnUse" gradientTransform="matrix(-6.8 1.8 -2.2 -8.5 17.53 7.45)">
      <stop offset=".17" stop-color="#372E42"/>
      <stop offset="1" stop-color="#231433"/>
    </radialGradient>
    <radialGradient id="paint13_radial_707_488" cx="0" cy="0" r="1" gradientUnits="userSpaceOnUse" gradientTransform="matrix(-1.2 .6 -.6 -1 19.13 24.42)">
      <stop stop-color="#2F2C31"/>
      <stop offset="1" stop-color="#2F2C31" stop-opacity="0"/>
    </radialGradient>
    <radialGradient id="paint17_radial_707_488" cx="0" cy="0" r="1" gradientUnits="userSpaceOnUse" gradientTransform="rotate(156 11 9.77) scale(6.7 2.2)">
      <stop offset=".21" stop-color="#322C38"/>
      <stop offset="1" stop-color="#221B29"/>
    </radialGradient>
    <filter id="filter0_i_707_488" x="4.4" y="8.09" width="23.54" height="22.05" filterUnits="userSpaceOnUse" color-interpolation-filters="sRGB">
      <feFlood flood-opacity="0" result="BackgroundImageFix"/>
      <feBlend in="SourceGraphic" in2="BackgroundImageFix" result="shape"/>
      <feColorMatrix in="SourceAlpha" values="0 0 0 0 0 0 0 0 0 0 0 0 0 0 0 0 0 0 127 0" result="hardAlpha"/>
      <feOffset dx=".1" dy="-.1"/>
      <feGaussianBlur stdDeviation=".15"/>
      <feComposite in2="hardAlpha" operator="arithmetic" k2="-1" k3="1"/>
      <feColorMatrix values="0 0 0 0 0.537255 0 0 0 0 0.384314 0 0 0 0 0.745098 0 0 0 1 0"/>
      <feBlend in2="shape" result="effect1_innerShadow_707_488"/>
    </filter>
    <filter id="filter1_i_707_488" x="9.08" y="1.61" width="9.69" height="12.35" filterUnits="userSpaceOnUse" color-interpolation-filters="sRGB">
      <feFlood flood-opacity="0" result="BackgroundImageFix"/>
      <feBlend in="SourceGraphic" in2="BackgroundImageFix" result="shape"/>
      <feColorMatrix in="SourceAlpha" values="0 0 0 0 0 0 0 0 0 0 0 0 0 0 0 0 0 0 127 0" result="hardAlpha"/>
      <feOffset dy="-.25"/>
      <feGaussianBlur stdDeviation=".5"/>
      <feComposite in2="hardAlpha" operator="arithmetic" k2="-1" k3="1"/>
      <feColorMatrix values="0 0 0 0 0.27451 0 0 0 0 0.12549 0 0 0 0 0.4 0 0 0 1 0"/>
      <feBlend in2="shape" result="effect1_innerShadow_707_488"/>
    </filter>
    <filter id="filter2_f_707_488" x="6.53" y="16.7" width="4" height="6.47" filterUnits="userSpaceOnUse" color-interpolation-filters="sRGB">
      <feFlood flood-opacity="0" result="BackgroundImageFix"/>
      <feBlend in="SourceGraphic" in2="BackgroundImageFix" result="shape"/>
      <feGaussianBlur stdDeviation=".25" result="effect1_foregroundBlur_707_488"/>
    </filter>
    <filter id="filter3_f_707_488" x="7.23" y="22.82" width="10.71" height="3.81" filterUnits="userSpaceOnUse" color-interpolation-filters="sRGB">
      <feFlood flood-opacity="0" result="BackgroundImageFix"/>
      <feBlend in="SourceGraphic" in2="BackgroundImageFix" result="shape"/>
      <feGaussianBlur stdDeviation=".5" result="effect1_foregroundBlur_707_488"/>
    </filter>
    <filter id="filter4_i_707_488" x="18.05" y="11.33" width="10.2" height="7.15" filterUnits="userSpaceOnUse" color-interpolation-filters="sRGB">
      <feFlood flood-opacity="0" result="BackgroundImageFix"/>
      <feBlend in="SourceGraphic" in2="BackgroundImageFix" result="shape"/>
      <feColorMatrix in="SourceAlpha" values="0 0 0 0 0 0 0 0 0 0 0 0 0 0 0 0 0 0 127 0" result="hardAlpha"/>
      <feOffset dy="-.5"/>
      <feGaussianBlur stdDeviation=".5"/>
      <feComposite in2="hardAlpha" operator="arithmetic" k2="-1" k3="1"/>
      <feColorMatrix values="0 0 0 0 0.254902 0 0 0 0 0.164706 0 0 0 0 0.34902 0 0 0 1 0"/>
      <feBlend in2="shape" result="effect1_innerShadow_707_488"/>
    </filter>
    <linearGradient id="paint14_linear_707_488" x1="11.56" y1="27.2" x2="11.56" y2="25.54" gradientUnits="userSpaceOnUse">
      <stop stop-color="#3E1958"/>
      <stop offset="1" stop-color="#3E1958" stop-opacity="0"/>
    </linearGradient>
    <linearGradient id="paint15_linear_707_488" x1="7.78" y1="22.48" x2="8.75" y2="17.98" gradientUnits="userSpaceOnUse">
      <stop stop-color="#27232D"/>
      <stop offset="1" stop-color="#27232C"/>
    </linearGradient>
    <linearGradient id="paint16_linear_707_488" x1="16.32" y1="25.14" x2="7.16" y2="25.14" gradientUnits="userSpaceOnUse">
      <stop offset=".56" stop-color="#2B292E"/>
      <stop offset="1" stop-color="#2B292E" stop-opacity="0"/>
    </linearGradient>
  </defs>
</svg>