<svg width="24" height="24" viewBox="0 0 32 32" fill="none" xmlns="http://www.w3.org/2000/svg">
  <g filter="url(#filter0_iii_708_743)">
    <path d="M22.05 6.11C15.28 2.73 7.25 4.04 3.6 9.95S2.26 23.73 8.8 27.52c3.22 1.87 8.4 3.77 10.51 1.23 2.07-2.49-.98-4.06-.27-5.44 1.14-2.21 6.26.7 9.61-2.88 3.77-4.04 0-11.02-6.59-14.32Zm2.03 13a2.9 2.9 0 0 1-3.03-2.97 2.9 2.9 0 0 1 3.03-2.96 2.9 2.9 0 0 1 3.03 2.96 2.9 2.9 0 0 1-3.03 2.96Z" fill="url(#paint0_linear_708_743)"/>
  </g>
  <g filter="url(#filter1_f_708_743)">
    <path d="M8.1 15.34a2.19 2.19 0 1 0 0-4.38 2.19 2.19 0 0 0 0 4.38Z" fill="#CB758C"/>
  </g>
  <g filter="url(#filter2_f_708_743)">
    <path d="M14.08 11.32a2.19 2.19 0 1 0 0-4.38 2.19 2.19 0 0 0 0 4.38Z" fill="#CB758C"/>
  </g>
  <g filter="url(#filter3_f_708_743)">
    <path d="M13.6 26.95a2.19 2.19 0 1 0 0-4.38 2.19 2.19 0 0 0 0 4.38Z" fill="#CB758C"/>
  </g>
  <g filter="url(#filter4_f_708_743)">
    <path d="M8.45 21.95a2.19 2.19 0 1 0 0-4.38 2.19 2.19 0 0 0 0 4.38Z" fill="#EDB88B"/>
  </g>
  <g filter="url(#filter5_f_708_743)">
    <path d="M8.53 14.98a2.19 2.19 0 1 0 0-4.38 2.19 2.19 0 0 0 0 4.38Z" fill="#EDB88B"/>
  </g>
  <g filter="url(#filter6_f_708_743)">
    <path d="M14.7 10.96a2.19 2.19 0 1 0 0-4.38 2.19 2.19 0 0 0 0 4.38Z" fill="#EDB88B"/>
  </g>
  <g filter="url(#filter7_ii_708_743)">
    <path d="M14.39 11.28a2.25 2.25 0 1 0 0-4.5 2.25 2.25 0 0 0 0 4.5Z" fill="url(#paint1_linear_708_743)"/>
  </g>
  <g filter="url(#filter8_ii_708_743)">
    <path d="M8.39 15.28a2.25 2.25 0 1 0 0-4.5 2.25 2.25 0 0 0 0 4.5Z" fill="url(#paint2_linear_708_743)"/>
  </g>
  <g filter="url(#filter9_f_708_743)">
    <path d="M8.1 22.44a2.19 2.19 0 1 0 0-4.38 2.19 2.19 0 0 0 0 4.38Z" fill="#CB758C"/>
  </g>
  <g filter="url(#filter10_ii_708_743)">
    <path d="M8.39 22.28a2.25 2.25 0 1 0 0-4.5 2.25 2.25 0 0 0 0 4.5Z" fill="url(#paint3_linear_708_743)"/>
  </g>
  <g filter="url(#filter11_ii_708_743)">
    <path d="M13.89 26.78a2.25 2.25 0 1 0 0-4.5 2.25 2.25 0 0 0 0 4.5Z" fill="url(#paint4_linear_708_743)"/>
  </g>
  <defs>
    <filter id="filter0_iii_708_743" x="1.56" y="3.98" width="29.03" height="26.29" filterUnits="userSpaceOnUse" color-interpolation-filters="sRGB">
      <feFlood flood-opacity="0" result="BackgroundImageFix"/>
      <feBlend in="SourceGraphic" in2="BackgroundImageFix" result="shape"/>
      <feColorMatrix in="SourceAlpha" values="0 0 0 0 0 0 0 0 0 0 0 0 0 0 0 0 0 0 127 0" result="hardAlpha"/>
      <feOffset dx=".45" dy=".3"/>
      <feGaussianBlur stdDeviation=".23"/>
      <feComposite in2="hardAlpha" operator="arithmetic" k2="-1" k3="1"/>
      <feColorMatrix values="0 0 0 0 1 0 0 0 0 0.647059 0 0 0 0 0.458824 0 0 0 1 0"/>
      <feBlend in2="shape" result="effect1_innerShadow_708_743"/>
      <feColorMatrix in="SourceAlpha" values="0 0 0 0 0 0 0 0 0 0 0 0 0 0 0 0 0 0 127 0" result="hardAlpha"/>
      <feOffset dx=".3" dy="-.3"/>
      <feGaussianBlur stdDeviation=".23"/>
      <feComposite in2="hardAlpha" operator="arithmetic" k2="-1" k3="1"/>
      <feColorMatrix values="0 0 0 0 0.937255 0 0 0 0 0.501961 0 0 0 0 0.588235 0 0 0 1 0"/>
      <feBlend in2="effect1_innerShadow_708_743" result="effect2_innerShadow_708_743"/>
      <feColorMatrix in="SourceAlpha" values="0 0 0 0 0 0 0 0 0 0 0 0 0 0 0 0 0 0 127 0" result="hardAlpha"/>
      <feOffset dx="-.3" dy=".3"/>
      <feGaussianBlur stdDeviation=".23"/>
      <feComposite in2="hardAlpha" operator="arithmetic" k2="-1" k3="1"/>
      <feColorMatrix values="0 0 0 0 1 0 0 0 0 0.835294 0 0 0 0 0.615686 0 0 0 1 0"/>
      <feBlend in2="effect2_innerShadow_708_743" result="effect3_innerShadow_708_743"/>
    </filter>
    <filter id="filter1_f_708_743" x="5.42" y="10.46" width="5.38" height="5.38" filterUnits="userSpaceOnUse" color-interpolation-filters="sRGB">
      <feFlood flood-opacity="0" result="BackgroundImageFix"/>
      <feBlend in="SourceGraphic" in2="BackgroundImageFix" result="shape"/>
      <feGaussianBlur stdDeviation=".25" result="effect1_foregroundBlur_708_743"/>
    </filter>
    <filter id="filter2_f_708_743" x="11.39" y="6.44" width="5.38" height="5.38" filterUnits="userSpaceOnUse" color-interpolation-filters="sRGB">
      <feFlood flood-opacity="0" result="BackgroundImageFix"/>
      <feBlend in="SourceGraphic" in2="BackgroundImageFix" result="shape"/>
      <feGaussianBlur stdDeviation=".25" result="effect1_foregroundBlur_708_743"/>
    </filter>
    <filter id="filter3_f_708_743" x="10.9" y="22.07" width="5.38" height="5.38" filterUnits="userSpaceOnUse" color-interpolation-filters="sRGB">
      <feFlood flood-opacity="0" result="BackgroundImageFix"/>
      <feBlend in="SourceGraphic" in2="BackgroundImageFix" result="shape"/>
      <feGaussianBlur stdDeviation=".25" result="effect1_foregroundBlur_708_743"/>
    </filter>
    <filter id="filter4_f_708_743" x="5.76" y="17.07" width="5.38" height="5.38" filterUnits="userSpaceOnUse" color-interpolation-filters="sRGB">
      <feFlood flood-opacity="0" result="BackgroundImageFix"/>
      <feBlend in="SourceGraphic" in2="BackgroundImageFix" result="shape"/>
      <feGaussianBlur stdDeviation=".25" result="effect1_foregroundBlur_708_743"/>
    </filter>
    <filter id="filter5_f_708_743" x="5.84" y="10.1" width="5.38" height="5.38" filterUnits="userSpaceOnUse" color-interpolation-filters="sRGB">
      <feFlood flood-opacity="0" result="BackgroundImageFix"/>
      <feBlend in="SourceGraphic" in2="BackgroundImageFix" result="shape"/>
      <feGaussianBlur stdDeviation=".25" result="effect1_foregroundBlur_708_743"/>
    </filter>
    <filter id="filter6_f_708_743" x="12.01" y="6.08" width="5.38" height="5.38" filterUnits="userSpaceOnUse" color-interpolation-filters="sRGB">
      <feFlood flood-opacity="0" result="BackgroundImageFix"/>
      <feBlend in="SourceGraphic" in2="BackgroundImageFix" result="shape"/>
      <feGaussianBlur stdDeviation=".25" result="effect1_foregroundBlur_708_743"/>
    </filter>
    <filter id="filter7_ii_708_743" x="11.84" y="6.78" width="5.1" height="4.8" filterUnits="userSpaceOnUse" color-interpolation-filters="sRGB">
      <feFlood flood-opacity="0" result="BackgroundImageFix"/>
      <feBlend in="SourceGraphic" in2="BackgroundImageFix" result="shape"/>
      <feColorMatrix in="SourceAlpha" values="0 0 0 0 0 0 0 0 0 0 0 0 0 0 0 0 0 0 127 0" result="hardAlpha"/>
      <feOffset dx="-.3" dy=".3"/>
      <feGaussianBlur stdDeviation=".23"/>
      <feComposite in2="hardAlpha" operator="arithmetic" k2="-1" k3="1"/>
      <feColorMatrix values="0 0 0 0 0.87451 0 0 0 0 0.490196 0 0 0 0 0.984314 0 0 0 1 0"/>
      <feBlend in2="shape" result="effect1_innerShadow_708_743"/>
      <feColorMatrix in="SourceAlpha" values="0 0 0 0 0 0 0 0 0 0 0 0 0 0 0 0 0 0 127 0" result="hardAlpha"/>
      <feOffset dx=".3"/>
      <feGaussianBlur stdDeviation=".5"/>
      <feComposite in2="hardAlpha" operator="arithmetic" k2="-1" k3="1"/>
      <feColorMatrix values="0 0 0 0 0.635294 0 0 0 0 0.258824 0 0 0 0 0.639216 0 0 0 1 0"/>
      <feBlend in2="effect1_innerShadow_708_743" result="effect2_innerShadow_708_743"/>
    </filter>
    <filter id="filter8_ii_708_743" x="5.84" y="10.78" width="5.1" height="4.8" filterUnits="userSpaceOnUse" color-interpolation-filters="sRGB">
      <feFlood flood-opacity="0" result="BackgroundImageFix"/>
      <feBlend in="SourceGraphic" in2="BackgroundImageFix" result="shape"/>
      <feColorMatrix in="SourceAlpha" values="0 0 0 0 0 0 0 0 0 0 0 0 0 0 0 0 0 0 127 0" result="hardAlpha"/>
      <feOffset dx="-.3" dy=".3"/>
      <feGaussianBlur stdDeviation=".23"/>
      <feComposite in2="hardAlpha" operator="arithmetic" k2="-1" k3="1"/>
      <feColorMatrix values="0 0 0 0 1 0 0 0 0 0.34902 0 0 0 0 0.619608 0 0 0 1 0"/>
      <feBlend in2="shape" result="effect1_innerShadow_708_743"/>
      <feColorMatrix in="SourceAlpha" values="0 0 0 0 0 0 0 0 0 0 0 0 0 0 0 0 0 0 127 0" result="hardAlpha"/>
      <feOffset dx=".3"/>
      <feGaussianBlur stdDeviation=".5"/>
      <feComposite in2="hardAlpha" operator="arithmetic" k2="-1" k3="1"/>
      <feColorMatrix values="0 0 0 0 0.807843 0 0 0 0 0.172549 0 0 0 0 0.415686 0 0 0 1 0"/>
      <feBlend in2="effect1_innerShadow_708_743" result="effect2_innerShadow_708_743"/>
    </filter>
    <filter id="filter9_f_708_743" x="5.42" y="17.56" width="5.38" height="5.38" filterUnits="userSpaceOnUse" color-interpolation-filters="sRGB">
      <feFlood flood-opacity="0" result="BackgroundImageFix"/>
      <feBlend in="SourceGraphic" in2="BackgroundImageFix" result="shape"/>
      <feGaussianBlur stdDeviation=".25" result="effect1_foregroundBlur_708_743"/>
    </filter>
    <filter id="filter10_ii_708_743" x="5.84" y="17.78" width="5.1" height="4.8" filterUnits="userSpaceOnUse" color-interpolation-filters="sRGB">
      <feFlood flood-opacity="0" result="BackgroundImageFix"/>
      <feBlend in="SourceGraphic" in2="BackgroundImageFix" result="shape"/>
      <feColorMatrix in="SourceAlpha" values="0 0 0 0 0 0 0 0 0 0 0 0 0 0 0 0 0 0 127 0" result="hardAlpha"/>
      <feOffset dx="-.3" dy=".3"/>
      <feGaussianBlur stdDeviation=".23"/>
      <feComposite in2="hardAlpha" operator="arithmetic" k2="-1" k3="1"/>
      <feColorMatrix values="0 0 0 0 0.364706 0 0 0 0 0.894118 0 0 0 0 0.737255 0 0 0 1 0"/>
      <feBlend in2="shape" result="effect1_innerShadow_708_743"/>
      <feColorMatrix in="SourceAlpha" values="0 0 0 0 0 0 0 0 0 0 0 0 0 0 0 0 0 0 127 0" result="hardAlpha"/>
      <feOffset dx=".3"/>
      <feGaussianBlur stdDeviation=".5"/>
      <feComposite in2="hardAlpha" operator="arithmetic" k2="-1" k3="1"/>
      <feColorMatrix values="0 0 0 0 0.247059 0 0 0 0 0.533333 0 0 0 0 0.694118 0 0 0 1 0"/>
      <feBlend in2="effect1_innerShadow_708_743" result="effect2_innerShadow_708_743"/>
    </filter>
    <filter id="filter11_ii_708_743" x="11.34" y="22.28" width="5.1" height="4.8" filterUnits="userSpaceOnUse" color-interpolation-filters="sRGB">
      <feFlood flood-opacity="0" result="BackgroundImageFix"/>
      <feBlend in="SourceGraphic" in2="BackgroundImageFix" result="shape"/>
      <feColorMatrix in="SourceAlpha" values="0 0 0 0 0 0 0 0 0 0 0 0 0 0 0 0 0 0 127 0" result="hardAlpha"/>
      <feOffset dx="-.3" dy=".3"/>
      <feGaussianBlur stdDeviation=".23"/>
      <feComposite in2="hardAlpha" operator="arithmetic" k2="-1" k3="1"/>
      <feColorMatrix values="0 0 0 0 0.364706 0 0 0 0 0.752941 0 0 0 0 0.945098 0 0 0 1 0"/>
      <feBlend in2="shape" result="effect1_innerShadow_708_743"/>
      <feColorMatrix in="SourceAlpha" values="0 0 0 0 0 0 0 0 0 0 0 0 0 0 0 0 0 0 127 0" result="hardAlpha"/>
      <feOffset dx=".3"/>
      <feGaussianBlur stdDeviation=".5"/>
      <feComposite in2="hardAlpha" operator="arithmetic" k2="-1" k3="1"/>
      <feColorMatrix values="0 0 0 0 0.266667 0 0 0 0 0.4 0 0 0 0 0.917647 0 0 0 1 0"/>
      <feBlend in2="effect1_innerShadow_708_743" result="effect2_innerShadow_708_743"/>
    </filter>
    <linearGradient id="paint0_linear_708_743" x1="24.08" y1="7.18" x2="13.73" y2="29.72" gradientUnits="userSpaceOnUse">
      <stop stop-color="#FFB9A1"/>
      <stop offset="1" stop-color="#FFB4AD"/>
    </linearGradient>
    <linearGradient id="paint1_linear_708_743" x1="13.07" y1="6.78" x2="15.14" y2="11.79" gradientUnits="userSpaceOnUse">
      <stop stop-color="#CC67F1"/>
      <stop offset="1" stop-color="#C950FC"/>
    </linearGradient>
    <linearGradient id="paint2_linear_708_743" x1="7.07" y1="10.78" x2="9.14" y2="15.79" gradientUnits="userSpaceOnUse">
      <stop stop-color="#F9399F"/>
      <stop offset="1" stop-color="#FD328C"/>
    </linearGradient>
    <linearGradient id="paint3_linear_708_743" x1="7.07" y1="17.78" x2="9.14" y2="22.79" gradientUnits="userSpaceOnUse">
      <stop stop-color="#47CFA8"/>
      <stop offset="1" stop-color="#48ABEB"/>
    </linearGradient>
    <linearGradient id="paint4_linear_708_743" x1="12.57" y1="22.28" x2="14.64" y2="27.29" gradientUnits="userSpaceOnUse">
      <stop stop-color="#49B1F1"/>
      <stop offset="1" stop-color="#4982FE"/>
    </linearGradient>
  </defs>
</svg>