<svg width="24" height="24" viewBox="0 0 32 32" fill="none" xmlns="http://www.w3.org/2000/svg">
  <g filter="url(#a)">
    <path d="M30 18c0 1-1 2-2 2.2a10 10 0 0 0-7.8 7.8c-.3 1-1.1 2-2.2 2H4a2 2 0 0 1-2-2A28 28 0 0 1 28 2c1 0 2 .9 2 2v14Z" fill="url(#b)"/>
  </g>
  <path d="M30 18c0 1-1 2-2 2.2a10 10 0 0 0-7.8 7.8c-.3 1-1.1 2-2.2 2H5A25 25 0 0 1 30 5v13Z" fill="url(#c)"/>
  <path d="M30 18c0 1-1 2-2 2.2a10 10 0 0 0-7.8 7.8c-.3 1-1.1 2-2.2 2H5A25 25 0 0 1 30 5v13Z" fill="url(#d)"/>
  <path d="M30 18c0 1-1 2-2 2.2a10 10 0 0 0-7.8 7.8c-.3 1-1.1 2-2.2 2H5A25 25 0 0 1 30 5v13Z" fill="url(#e)"/>
  <path d="M30 18c0 1-1 2-2 2.2a10 10 0 0 0-7.8 7.8c-.3 1-1.1 2-2.2 2H8A22 22 0 0 1 30 8v10Z" fill="url(#f)"/>
  <path d="M30 18c0 1-1 2-2 2.2a10 10 0 0 0-7.8 7.8c-.3 1-1.1 2-2.2 2H8A22 22 0 0 1 30 8v10Z" fill="url(#g)"/>
  <path d="M30 18c0 1-1 2-2 2.2a10 10 0 0 0-7.8 7.8c-.3 1-1.1 2-2.2 2H8A22 22 0 0 1 30 8v10Z" fill="url(#h)"/>
  <path d="M30 18c0 1-1 2-2 2.2a10 10 0 0 0-7.8 7.8c-.3 1-1.1 2-2.2 2h-7a19 19 0 0 1 19-19v7Z" fill="url(#i)"/>
  <path d="M30 18c0 1-1 2-2 2.2a10 10 0 0 0-7.8 7.8c-.3 1-1.1 2-2.2 2h-7a19 19 0 0 1 19-19v7Z" fill="url(#j)"/>
  <path d="M30 18c0 1-1 2-2 2.2a10 10 0 0 0-7.8 7.8c-.3 1-1.1 2-2.2 2h-7a19 19 0 0 1 19-19v7Z" fill="url(#k)"/>
  <path d="M30 18c0 1-1 2-2 2.2a10 10 0 0 0-7.8 7.8c-.3 1-1.1 2-2.2 2h-4a16 16 0 0 1 16-16v4Z" fill="url(#l)"/>
  <path d="M30 18c0 1-1 2-2 2.2a10 10 0 0 0-7.8 7.8c-.3 1-1.1 2-2.2 2h-4a16 16 0 0 1 16-16v4Z" fill="url(#m)"/>
  <path d="M30 18c0 1-1 2-2 2.2a10 10 0 0 0-7.8 7.8c-.3 1-1.1 2-2.2 2h-4a16 16 0 0 1 16-16v4Z" fill="url(#n)"/>
  <path d="M30 18.7c0 .7-.6 1.3-1.3 1.3a10 10 0 0 0-8.7 8.7c0 .7-.6 1.3-1.3 1.3H17a13 13 0 0 1 13-13v1.7Z" fill="url(#o)"/>
  <path d="M30 18.7c0 .7-.6 1.3-1.3 1.3a10 10 0 0 0-8.7 8.7c0 .7-.6 1.3-1.3 1.3H17a13 13 0 0 1 13-13v1.7Z" fill="url(#p)"/>
  <path d="M30 18.7c0 .7-.6 1.3-1.3 1.3a10 10 0 0 0-8.7 8.7c0 .7-.6 1.3-1.3 1.3H17a13 13 0 0 1 13-13v1.7Z" fill="url(#q)"/>
  <g filter="url(#r)">
    <path d="M22 23.2c-.6.6-2.2 2.8-2.5 5.5" stroke="url(#s)" stroke-width=".4" stroke-linecap="round"/>
  </g>
  <defs>
    <linearGradient id="b" x1="3" y1="25.8" x2="21.6" y2="8" gradientUnits="userSpaceOnUse">
      <stop stop-color="#FF4B5F"/>
      <stop offset="1" stop-color="#F63EA0"/>
    </linearGradient>
    <linearGradient id="c" x1="8.9" y1="29" x2="27.4" y2="7" gradientUnits="userSpaceOnUse">
      <stop stop-color="#FF8E54"/>
      <stop offset="1" stop-color="#FFC751"/>
    </linearGradient>
    <linearGradient id="d" x1="30" y1="6.8" x2="29.1" y2="6.8" gradientUnits="userSpaceOnUse">
      <stop stop-color="#FFEF61"/>
      <stop offset="1" stop-color="#FFEF61" stop-opacity="0"/>
    </linearGradient>
    <linearGradient id="e" x1="6.4" y1="30" x2="6.4" y2="29.4" gradientUnits="userSpaceOnUse">
      <stop offset=".3" stop-color="#FF677B"/>
      <stop offset="1" stop-color="#FF677B" stop-opacity="0"/>
    </linearGradient>
    <linearGradient id="f" x1="11.4" y1="29.1" x2="27.7" y2="9.8" gradientUnits="userSpaceOnUse">
      <stop stop-color="#FFD05E"/>
      <stop offset="1" stop-color="#FFE38D"/>
    </linearGradient>
    <linearGradient id="g" x1="30" y1="9.6" x2="29.2" y2="9.6" gradientUnits="userSpaceOnUse">
      <stop stop-color="#FFFF9F"/>
      <stop offset="1" stop-color="#FFFF9F" stop-opacity="0"/>
    </linearGradient>
    <linearGradient id="h" x1="9.2" y1="30" x2="9.2" y2="29.5" gradientUnits="userSpaceOnUse">
      <stop offset=".3" stop-color="#FF9783"/>
      <stop offset="1" stop-color="#FF9783" stop-opacity="0"/>
    </linearGradient>
    <linearGradient id="i" x1="14" y1="29.3" x2="28" y2="12.5" gradientUnits="userSpaceOnUse">
      <stop stop-color="#48CF92"/>
      <stop offset="1" stop-color="#60E4AB"/>
    </linearGradient>
    <linearGradient id="j" x1="30" y1="12.4" x2="29.1" y2="12.4" gradientUnits="userSpaceOnUse">
      <stop stop-color="#74FFB9"/>
      <stop offset="1" stop-color="#74FFB9" stop-opacity="0"/>
    </linearGradient>
    <linearGradient id="k" x1="12.1" y1="30" x2="12.1" y2="29.6" gradientUnits="userSpaceOnUse">
      <stop offset=".3" stop-color="#5E97B1"/>
      <stop offset="1" stop-color="#5E97B1" stop-opacity="0"/>
    </linearGradient>
    <linearGradient id="l" x1="16.5" y1="29.4" x2="28.3" y2="15.3" gradientUnits="userSpaceOnUse">
      <stop stop-color="#4D81F6"/>
      <stop offset="1" stop-color="#46A0FF"/>
    </linearGradient>
    <linearGradient id="m" x1="30" y1="15.1" x2="29.3" y2="15.1" gradientUnits="userSpaceOnUse">
      <stop stop-color="#55C3FF"/>
      <stop offset="1" stop-color="#55C3FF" stop-opacity="0"/>
    </linearGradient>
    <linearGradient id="n" x1="14.9" y1="30" x2="14.9" y2="29.6" gradientUnits="userSpaceOnUse">
      <stop offset=".3" stop-color="#6160FF"/>
      <stop offset="1" stop-color="#6160FF" stop-opacity="0"/>
    </linearGradient>
    <linearGradient id="o" x1="19" y1="29.5" x2="28.6" y2="18" gradientUnits="userSpaceOnUse">
      <stop stop-color="#8569CA"/>
      <stop offset="1" stop-color="#9970E2"/>
    </linearGradient>
    <linearGradient id="p" x1="30" y1="17.9" x2="29.4" y2="17.9" gradientUnits="userSpaceOnUse">
      <stop stop-color="#B28AFA"/>
      <stop offset="1" stop-color="#B28AFA" stop-opacity="0"/>
    </linearGradient>
    <linearGradient id="q" x1="17.7" y1="30" x2="17.7" y2="29.7" gradientUnits="userSpaceOnUse">
      <stop offset=".3" stop-color="#894FE0"/>
      <stop offset="1" stop-color="#894FE0" stop-opacity="0"/>
    </linearGradient>
    <linearGradient id="s" x1="19.8" y1="28.6" x2="22.1" y2="23.3" gradientUnits="userSpaceOnUse">
      <stop stop-color="#977DDD"/>
      <stop offset="1" stop-color="#977DDD" stop-opacity="0"/>
    </linearGradient>
    <filter id="a" x="1.7" y="1.8" width="28.5" height="28.4" filterUnits="userSpaceOnUse" color-interpolation-filters="sRGB">
      <feFlood flood-opacity="0" result="BackgroundImageFix"/>
      <feBlend in="SourceGraphic" in2="BackgroundImageFix" result="shape"/>
      <feColorMatrix in="SourceAlpha" values="0 0 0 0 0 0 0 0 0 0 0 0 0 0 0 0 0 0 127 0" result="hardAlpha"/>
      <feOffset dx=".3" dy=".3"/>
      <feGaussianBlur stdDeviation=".3"/>
      <feComposite in2="hardAlpha" operator="arithmetic" k2="-1" k3="1"/>
      <feColorMatrix values="0 0 0 0 0.760784 0 0 0 0 0.286275 0 0 0 0 0.372549 0 0 0 1 0"/>
      <feBlend in2="shape" result="effect1_innerShadow_707_441"/>
      <feColorMatrix in="SourceAlpha" values="0 0 0 0 0 0 0 0 0 0 0 0 0 0 0 0 0 0 127 0" result="hardAlpha"/>
      <feOffset dy="-.3"/>
      <feGaussianBlur stdDeviation=".5"/>
      <feComposite in2="hardAlpha" operator="arithmetic" k2="-1" k3="1"/>
      <feColorMatrix values="0 0 0 0 0.941176 0 0 0 0 0.207843 0 0 0 0 0.423529 0 0 0 1 0"/>
      <feBlend in2="effect1_innerShadow_707_441" result="effect2_innerShadow_707_441"/>
      <feColorMatrix in="SourceAlpha" values="0 0 0 0 0 0 0 0 0 0 0 0 0 0 0 0 0 0 127 0" result="hardAlpha"/>
      <feOffset dx="-.6"/>
      <feGaussianBlur stdDeviation=".1"/>
      <feComposite in2="hardAlpha" operator="arithmetic" k2="-1" k3="1"/>
      <feColorMatrix values="0 0 0 0 1 0 0 0 0 0.368627 0 0 0 0 0.709804 0 0 0 1 0"/>
      <feBlend in2="effect2_innerShadow_707_441" result="effect3_innerShadow_707_441"/>
    </filter>
    <filter id="r" x="18.9" y="22.6" width="3.6" height="6.7" filterUnits="userSpaceOnUse" color-interpolation-filters="sRGB">
      <feFlood flood-opacity="0" result="BackgroundImageFix"/>
      <feBlend in="SourceGraphic" in2="BackgroundImageFix" result="shape"/>
      <feGaussianBlur stdDeviation=".2" result="effect1_foregroundBlur_707_441"/>
    </filter>
  </defs>
</svg>